<svg width="62" height="67" viewBox="0 0 62 67" fill="none" xmlns="http://www.w3.org/2000/svg">
<path opacity="0.1" fill-rule="evenodd" clip-rule="evenodd" d="M5.15624 0.194311C4.74187 0.294719 4.0446 0.557762 3.60689 0.77898C3.16932 1.0002 2.49977 1.47921 2.11911 1.84354C1.73845 2.20786 1.23508 2.80812 1.00046 3.1774C0.765851 3.54668 0.444863 4.26557 0.287287 4.7749C0.00817361 5.67711 0.000732422 6.2389 0.000732422 26.4393C0.000732422 46.3834 0.0113835 47.2115 0.27722 48.0646C0.429252 48.5525 0.764392 49.2798 1.02206 49.681C1.27987 50.0821 1.82847 50.7153 2.24123 51.0879C2.65399 51.4607 3.3857 51.9495 3.86718 52.1742C4.34866 52.3987 5.16937 52.6506 5.69097 52.7336C6.27109 52.826 10.1663 52.8852 15.7219 52.8858L24.8044 52.8869V56.2287V59.5705L21.5336 59.6169L18.2629 59.6634L17.6437 60.1006C17.3032 60.341 16.8873 60.8001 16.7197 61.1207C16.4644 61.6089 16.4149 61.964 16.4149 63.3066C16.4149 64.7786 16.4466 64.9634 16.8018 65.567C17.0402 65.9719 17.4323 66.3636 17.8232 66.5872L18.4575 66.9499L30.3421 66.9904C38.8746 67.0195 42.4548 66.9838 43.0357 66.8635C43.6701 66.7322 43.9749 66.566 44.4472 66.0943C44.9332 65.6089 45.0847 65.3237 45.2313 64.6182C45.3366 64.1111 45.3792 63.2979 45.3329 62.6822C45.2745 61.9097 45.1509 61.4471 44.8791 60.984C44.6087 60.5232 44.2955 60.2428 43.7453 59.969C43.0038 59.5998 42.9139 59.5905 40.0956 59.5905H37.2062V56.2387V52.8869L46.2157 52.8858C51.5756 52.8852 55.6094 52.8248 56.1736 52.737C56.6952 52.6558 57.5822 52.3654 58.1446 52.0917C58.759 51.7928 59.476 51.2851 59.9407 50.8197C60.3932 50.3665 60.9231 49.6218 61.2177 49.0251C61.5578 48.3358 61.7664 47.6506 61.861 46.912C61.944 46.2632 62.0007 37.9414 62.0007 26.4369C62.0007 14.737 61.9446 6.62232 61.8589 5.96347C61.7661 5.24823 61.5422 4.50369 61.2092 3.80346C60.8761 3.10294 60.4339 2.47499 59.9253 1.98023C59.4985 1.56519 58.8187 1.04698 58.4149 0.82882C58.0109 0.610516 57.2593 0.332755 56.7446 0.211507C55.9278 0.0192895 52.6374 -0.00752476 30.8594 0.0015105C11.4 0.00952565 5.74408 0.0519331 5.15624 0.194311ZM56.5766 2.54042C57.0787 2.68935 57.5844 2.99961 58.1159 3.48475C58.6041 3.93039 59.0405 4.50151 59.2548 4.97528L59.6024 5.74327V26.4369V47.1306L59.1968 47.9556C58.9737 48.4092 58.5221 49.0232 58.1934 49.3199C57.8645 49.6166 57.292 49.9996 56.921 50.171L56.2466 50.4824H31.0053C10.353 50.4824 5.66413 50.4471 5.21475 50.2883C4.91258 50.1815 4.3437 49.84 3.95034 49.5295C3.4407 49.1271 3.0952 48.681 2.74868 47.9779L2.26224 46.991V26.5129C2.26224 7.15204 2.27654 5.99364 2.52545 5.28116C2.67019 4.86685 3.05566 4.22462 3.3822 3.85432C3.70858 3.48387 4.24667 3.04246 4.57802 2.87341C4.90922 2.70436 5.34445 2.51608 5.54507 2.45488C5.74569 2.39367 17.1416 2.338 30.8693 2.33115C52.8154 2.32007 55.9192 2.34543 56.5766 2.54042ZM23.7101 5.99218C23.5496 6.08414 23.3383 6.26236 23.2406 6.38842C23.1428 6.51448 23.0607 6.80098 23.0582 7.02497C23.0554 7.2679 23.1981 7.57685 23.4117 7.79005L23.7697 8.14782H29.4733H35.1768L35.5348 7.79005C35.7318 7.59332 35.893 7.30142 35.893 7.14126C35.893 6.98096 35.8201 6.69023 35.7311 6.4948C35.6419 6.29952 35.4091 6.06694 35.2136 5.9779C34.9727 5.86831 33.1063 5.8176 29.4299 5.82051C25.6219 5.82372 23.9148 5.87487 23.7101 5.99218ZM47.8828 9.17813C47.5358 9.24633 46.9042 9.46114 46.4792 9.65554C46.0542 9.8498 45.4297 10.2586 45.0915 10.5637C44.7533 10.8689 44.2896 11.3902 44.061 11.722C43.8325 12.0538 43.5098 12.7277 43.3439 13.2194C43.1628 13.7561 43.0423 14.489 43.0423 15.0524C43.0423 15.5688 43.1649 16.3845 43.3146 16.8649C43.4643 17.3456 43.7813 18.0264 44.0188 18.3782L44.451 19.0175L40.0697 23.6315L35.6883 28.2453L34.9156 27.5153C34.4906 27.114 33.7653 26.6087 33.3037 26.3926C32.5513 26.0404 32.2978 25.9997 30.8563 25.9997C29.3385 25.9997 29.1944 26.0263 28.2896 26.4712C27.7623 26.7304 27.005 27.268 26.6068 27.6657C26.2085 28.0634 25.7273 28.7202 25.5375 29.1252C25.3476 29.5302 25.137 29.8616 25.0696 29.8616C25.0022 29.8616 23.2572 28.8061 21.1916 27.5159C19.1262 26.2258 17.4237 25.1584 17.4084 25.1442C17.393 25.1299 17.5747 24.7264 17.8121 24.2473C18.0495 23.7685 18.3198 22.9667 18.4129 22.4658C18.5394 21.7848 18.5406 21.3327 18.418 20.6739C18.3277 20.1892 18.0899 19.4349 17.8894 18.9976C17.6889 18.5602 17.1816 17.8397 16.7619 17.3964C16.2796 16.8872 15.6455 16.4178 15.0396 16.1217C14.136 15.68 13.9875 15.6529 12.4755 15.6536C10.9453 15.6544 10.8249 15.6772 9.88979 16.1452C9.28925 16.4458 8.62174 16.9396 8.16754 17.4193C7.75974 17.8499 7.26309 18.5579 7.06407 18.9923C6.86492 19.4266 6.63162 20.181 6.54568 20.6685C6.4345 21.2989 6.4345 21.811 6.54568 22.4415C6.63162 22.9289 6.86083 23.6746 7.05517 24.0984C7.24937 24.5222 7.65834 25.1453 7.96386 25.4831C8.26938 25.8209 8.79128 26.2841 9.1235 26.5124C9.45573 26.7406 10.1304 27.063 10.6227 27.2287C11.1691 27.4125 11.8935 27.5299 12.4816 27.5299C13.1236 27.5299 13.8096 27.4078 14.5359 27.1643C15.3658 26.8859 15.6946 26.8349 15.9108 26.9505C16.0672 27.0341 17.9845 28.2233 20.1715 29.5933C22.3584 30.9632 24.3197 32.2054 24.5298 32.3536C24.7839 32.5327 24.9416 32.8096 25.001 33.1804C25.0501 33.4871 25.2898 34.1367 25.5336 34.624C25.7819 35.1203 26.2984 35.8104 26.7077 36.1928C27.1096 36.5684 27.8799 37.0844 28.4194 37.3397C29.3196 37.7657 29.521 37.8039 30.8669 37.8039C32.2686 37.8039 32.3827 37.7797 33.4452 37.2551C34.2105 36.8773 34.7722 36.4684 35.2473 35.9435C35.627 35.5239 36.0912 34.848 36.2789 34.4414C36.4667 34.0349 36.6895 33.3463 36.774 32.9113C36.8585 32.4763 36.8862 31.7502 36.8356 31.2979L36.7434 30.4754L41.5166 25.4534L46.2898 20.4314L46.9979 20.7001C47.3875 20.848 48.0548 21.0098 48.4812 21.0599C48.9165 21.1109 49.637 21.0722 50.1252 20.9715C50.603 20.8727 51.3552 20.6104 51.7965 20.3883C52.2379 20.1662 52.9473 19.6166 53.3729 19.167C53.7985 18.7175 54.3237 17.9725 54.5401 17.5114C54.8926 16.7602 54.9335 16.5065 54.9335 15.07C54.9335 13.5605 54.906 13.411 54.4641 12.5089C54.1676 11.9037 53.6977 11.2704 53.1879 10.7887C52.744 10.3695 52.0313 9.8667 51.6038 9.67128C51.1764 9.47585 50.478 9.24983 50.0515 9.16909C49.6252 9.08821 49.1048 9.02934 48.8951 9.03823C48.6853 9.04697 48.2298 9.10993 47.8828 9.17813ZM18.41 10.2338C18.2263 10.4292 18.0928 10.7597 18.0928 11.0193C18.0928 11.2657 18.2183 11.6222 18.3716 11.8113L18.6506 12.1554L29.132 12.1965C34.8969 12.2192 39.763 12.2012 39.9455 12.1564C40.1282 12.1117 40.4071 11.9457 40.5656 11.7874C40.737 11.6162 40.8538 11.3032 40.8538 11.0149C40.8538 10.6968 40.7378 10.4215 40.5161 10.2134L40.1784 9.89658H29.4528H18.7273L18.41 10.2338ZM50.2103 11.5766C50.5701 11.699 51.1093 12.0008 51.4084 12.2471C51.7077 12.4933 52.1193 13.0238 52.3232 13.4257C52.5977 13.9668 52.6953 14.3891 52.6991 15.0528C52.702 15.5458 52.6067 16.1824 52.4875 16.4674C52.3683 16.7524 52.0554 17.2307 51.7921 17.5302C51.5289 17.8297 51.0527 18.2076 50.7339 18.3699C50.4151 18.5324 49.8181 18.6997 49.4069 18.7418C48.9959 18.7838 48.39 18.7455 48.0605 18.6564C47.7311 18.5675 47.1637 18.2676 46.7996 17.99C46.3924 17.6793 45.9913 17.1917 45.7573 16.7226C45.472 16.151 45.3768 15.737 45.3768 15.07C45.3768 14.4044 45.472 13.9888 45.7547 13.4225C45.9626 13.0059 46.3728 12.4662 46.6666 12.2232C46.9603 11.9802 47.496 11.6898 47.8571 11.5779C48.2182 11.4658 48.7482 11.3696 49.0349 11.3641C49.3214 11.3584 49.8505 11.4541 50.2103 11.5766ZM14.2444 18.317C14.5755 18.4878 15.0209 18.8351 15.2347 19.0886C15.4483 19.3422 15.7246 19.7459 15.8488 19.9858C15.9729 20.2256 16.1102 20.7663 16.1537 21.1872C16.2063 21.6965 16.153 22.192 15.9944 22.6691C15.8632 23.0633 15.5598 23.6238 15.3197 23.9145C15.0797 24.2054 14.5421 24.6131 14.1249 24.8208C13.558 25.1031 13.1418 25.1982 12.4755 25.1982C11.8092 25.1982 11.393 25.1031 10.8261 24.8208C10.4089 24.6131 9.87257 24.207 9.63417 23.9181C9.39591 23.6293 9.10045 23.0988 8.97789 22.7395C8.85533 22.3801 8.75495 21.847 8.75495 21.555C8.75495 21.2629 8.85533 20.7299 8.97789 20.3705C9.10045 20.0111 9.40233 19.4729 9.64861 19.1745C9.89475 18.876 10.3689 18.4906 10.7023 18.3176C11.0356 18.1448 11.5709 17.9646 11.8919 17.9174C12.2129 17.8702 12.7381 17.8708 13.0591 17.919C13.3801 17.9671 13.9135 18.1462 14.2444 18.317ZM48.3678 22.4199C48.127 22.4785 47.7165 22.6375 47.4553 22.7734C47.1941 22.9092 46.8002 23.2925 46.5799 23.6249L46.1792 24.2296L46.1394 34.5142L46.0997 44.7989L46.4312 45.4462C46.6136 45.8023 47.0151 46.2941 47.3236 46.5392L47.8843 46.9849H50.5441C53.1857 46.9849 53.208 46.9822 53.7957 46.5937C54.1521 46.3581 54.5105 45.9487 54.6969 45.564C55.0033 44.932 55.0064 44.8225 55.0064 34.6904C55.0064 25.5604 54.981 24.4047 54.7709 23.9887C54.6414 23.7322 54.365 23.3405 54.1567 23.1181C53.9485 22.8958 53.4515 22.6172 53.0526 22.4987C52.5713 22.3561 51.7347 22.2886 50.5663 22.2985C49.5979 22.3068 48.6085 22.3613 48.3678 22.4199ZM52.5886 24.8442C52.7923 25.0478 52.8179 26.1385 52.8179 34.6532C52.8179 42.1237 52.7774 44.2884 52.6342 44.4841C52.4734 44.7038 52.2056 44.7298 50.4821 44.6941L48.5137 44.6532L48.4762 34.8326C48.4489 27.6994 48.4838 24.9578 48.6034 24.8136C48.7261 24.666 49.2273 24.6153 50.5638 24.6153C52.0015 24.6153 52.4049 24.6609 52.5886 24.8442ZM32.5003 28.5728C32.8412 28.7347 33.3464 29.1313 33.6232 29.4543C33.9 29.7771 34.2284 30.3405 34.3532 30.7061C34.4779 31.0717 34.5799 31.5596 34.5799 31.7903C34.5799 32.0212 34.5104 32.4849 34.4254 32.8209C34.3405 33.157 34.0507 33.7348 33.7815 34.1048C33.462 34.544 33.0243 34.911 32.5212 35.1614C31.9417 35.4499 31.5293 35.5451 30.8594 35.5451C30.193 35.5451 29.7769 35.4499 29.2099 35.1676C28.7928 34.96 28.2551 34.5522 28.0151 34.2613C27.7751 33.9706 27.4716 33.4101 27.3405 33.0159C27.1821 32.5397 27.1286 32.0432 27.181 31.5362C27.2243 31.1165 27.3906 30.5188 27.5507 30.2081C27.7108 29.8973 28.0282 29.4757 28.2561 29.2714C28.4842 29.0669 28.7894 28.81 28.9343 28.7003C29.0792 28.5905 29.506 28.4155 29.8827 28.3112C30.2594 28.2068 30.863 28.1567 31.2241 28.2C31.5852 28.2431 32.1595 28.411 32.5003 28.5728ZM9.63329 30.1895C9.27991 30.3699 8.78997 30.7693 8.54456 31.0774L8.09838 31.6375V38.4481V45.2588L8.49933 45.7838C8.71979 46.0724 9.11373 46.4608 9.37475 46.6468C9.8288 46.9703 9.96216 46.9849 12.4755 46.9849C14.9888 46.9849 15.1222 46.9703 15.5762 46.6468C15.8373 46.4608 16.2312 46.0726 16.4517 45.7839L16.8526 45.2591L16.898 38.8355C16.9285 34.5067 16.8916 32.2358 16.7846 31.8719C16.6974 31.5749 16.4499 31.123 16.2347 30.8676C16.0195 30.6121 15.578 30.2826 15.2536 30.1356C14.7666 29.9145 14.2825 29.8674 12.47 29.8648C10.4787 29.8619 10.2165 29.8919 9.63329 30.1895ZM14.5181 38.4597V44.6532H12.4755H10.4328L10.3948 38.6055C10.3738 35.2792 10.3888 32.4739 10.4282 32.3713C10.4826 32.2297 10.9819 32.1947 12.5089 32.2256L14.5181 32.2661V38.4597ZM28.1645 39.8514C27.886 39.9747 27.5344 40.1874 27.3829 40.3241C27.2316 40.4608 26.9834 40.8161 26.8315 41.1134C26.6064 41.5539 26.5552 41.9739 26.5552 43.3801C26.5552 45.0325 26.5731 45.1345 26.9764 45.7695C27.2563 46.2105 27.6142 46.5376 28.0437 46.7453C28.62 47.0239 28.9339 47.0574 30.9419 47.0545C32.8105 47.0519 33.2942 47.0058 33.7834 46.7838C34.1077 46.6367 34.5484 46.3082 34.7627 46.0538C34.977 45.7995 35.2201 45.3474 35.303 45.0494C35.3859 44.7514 35.454 43.9148 35.4544 43.1903C35.4552 42.1106 35.3961 41.7575 35.127 41.2314C34.9464 40.8785 34.5466 40.3891 34.2385 40.144L33.6784 39.6984L31.1745 39.6628C29.1793 39.6344 28.5679 39.6727 28.1645 39.8514ZM32.8806 41.9964C33.093 42.1514 33.1268 42.3804 33.0908 43.4173L33.0479 44.6532L31.0983 44.694C29.7854 44.7214 29.0827 44.6799 28.9463 44.5668C28.8074 44.4516 28.7438 44.0647 28.7438 43.3342C28.7438 42.5605 28.8065 42.2068 28.973 42.0404C29.1553 41.8582 29.5525 41.8115 30.9148 41.8115C32.0682 41.8115 32.71 41.8718 32.8806 41.9964ZM34.8717 56.2387V59.5905H30.9323H26.9929V56.2387V52.8869H30.9323H34.8717V56.2387ZM42.8672 62.0971C42.9705 62.2002 43.0423 62.6962 43.0423 63.3066C43.0423 63.9171 42.9705 64.413 42.8672 64.5162C42.7339 64.6494 39.868 64.6911 30.8594 64.6911C21.8507 64.6911 18.9848 64.6494 18.8515 64.5162C18.7482 64.413 18.6764 63.9171 18.6764 63.3066C18.6764 62.6962 18.7482 62.2002 18.8515 62.0971C18.9848 61.9639 21.8507 61.9222 30.8594 61.9222C39.868 61.9222 42.7339 61.9639 42.8672 62.0971Z" fill="black"/>
</svg>
