<svg width="365" height="741" viewBox="0 0 365 741" fill="none" xmlns="http://www.w3.org/2000/svg">
<path opacity="0.55" fill-rule="evenodd" clip-rule="evenodd" d="M89.7562 13.7621C185.222 39.3422 265.015 100.533 314.445 186.067C363.876 271.6 377.027 371.237 351.467 466.626C325.908 562.015 264.703 641.72 179.128 691.079C93.5599 740.44 -6.14507 753.535 -101.611 727.955C-197.077 702.375 -276.87 641.184 -326.301 555.65C-375.731 470.116 -388.875 370.481 -363.317 275.1C-337.76 179.718 -276.56 100.004 -190.985 50.6446C-105.41 1.28558 -5.70485 -11.8091 89.7543 13.7691L89.7562 13.7621ZM-100.869 725.186C-6.14292 750.568 92.7871 737.575 177.694 688.596C262.613 639.627 323.339 560.526 348.698 465.884C374.058 371.242 361.011 272.373 311.969 187.502C262.92 102.63 183.741 41.9128 89.0213 16.5328C-5.69809 -8.84718 -104.635 4.14364 -189.542 53.1229C-274.456 102.1 -335.18 181.195 -360.541 275.844C-385.902 370.493 -372.854 469.355 -323.812 554.225C-274.768 639.089 -195.591 699.813 -100.871 725.193L-100.869 725.186ZM87.3624 22.6957C180.44 47.6358 258.242 107.296 306.432 190.693C354.625 274.083 367.446 371.23 342.527 464.23C317.607 557.23 257.932 634.945 174.501 683.066C91.0685 731.194 -6.1397 743.961 -99.2175 719.021C-192.295 694.081 -270.097 634.42 -318.287 551.024C-366.478 467.627 -379.301 370.487 -354.382 277.487C-329.462 184.486 -269.794 106.77 -186.354 58.6437C-102.922 10.5154 -5.71348 -2.25148 87.3643 22.6886L87.3624 22.6957ZM-98.4774 716.259C-6.13945 741.001 90.2939 728.336 173.066 680.59C255.844 632.845 315.038 555.742 339.758 463.488C364.477 371.235 351.76 274.856 303.949 192.127C256.138 109.398 178.958 50.2065 86.6205 25.4646C-5.71748 0.722665 -102.151 13.3876 -184.923 61.1342C-267.692 108.874 -326.894 185.975 -351.615 278.236C-376.336 370.496 -363.617 466.868 -315.806 549.597C-267.995 632.325 -190.808 691.519 -98.4774 716.259ZM298.421 195.313C251.461 114.058 175.658 55.9296 84.9687 31.6294L84.9668 31.6365C-5.72258 7.33635 -100.434 19.7754 -181.73 66.664C-263.026 113.552 -321.163 189.278 -345.443 279.889C-369.722 370.501 -357.236 465.15 -310.276 546.404C-263.316 627.659 -187.513 685.787 -96.8237 710.087C-6.13434 734.388 88.5772 721.948 169.873 675.06C251.162 628.17 309.307 552.446 333.586 461.835C357.865 371.223 345.381 276.567 298.421 195.313ZM168.437 672.584C87.8025 719.09 -6.13408 731.428 -96.0837 707.326C-186.026 683.226 -261.214 625.564 -307.794 544.978C-354.366 464.386 -366.755 370.503 -342.674 280.631C-318.593 190.759 -260.922 115.649 -180.294 69.1403C-99.6613 22.6406 -5.72284 10.2964 84.2267 34.3983C174.176 58.5002 249.366 116.155 295.938 196.746C342.509 277.338 354.898 371.221 330.817 461.093C306.736 550.965 249.074 626.07 168.437 672.584ZM82.5749 40.563C170.876 64.2232 244.681 120.819 290.401 199.937C336.121 279.055 348.279 371.207 324.638 459.437C300.997 547.668 244.391 621.394 165.238 667.052C86.0929 712.705 -6.129 724.814 -94.4299 701.154C-182.731 677.494 -256.536 620.897 -302.256 541.78C-347.976 462.662 -360.135 370.51 -336.493 282.28C-312.852 194.049 -256.239 120.325 -177.093 74.6649C-97.939 29.0072 -5.71717 16.8978 82.5767 40.5561L82.5749 40.563ZM-93.6899 698.392C-6.12877 721.854 85.3201 709.839 163.811 664.57C242.304 619.294 298.435 546.181 321.876 458.697C345.317 371.213 333.258 279.82 287.924 201.373C242.584 122.923 169.394 66.794 81.8329 43.332C-5.72824 19.8701 -97.1771 31.8845 -175.668 77.1535C-254.159 122.423 -310.292 195.543 -333.733 283.027C-357.174 370.511 -345.115 461.904 -299.781 540.351C-254.441 618.801 -181.251 674.93 -93.6899 698.392ZM282.388 204.563C237.905 127.59 166.094 72.5169 80.1811 49.4967L80.183 49.4897C-5.72949 26.4695 -95.4566 38.2581 -172.466 82.6781C-249.476 127.098 -304.558 198.831 -327.56 284.674C-350.561 370.516 -338.725 460.18 -294.243 537.153C-249.76 614.127 -177.949 669.2 -92.0361 692.22C-6.12364 715.24 83.6015 703.459 160.611 659.039C237.628 614.621 292.703 542.885 315.704 457.043C338.706 371.201 326.87 281.537 282.388 204.563ZM159.177 656.555C82.8288 700.594 -6.12338 712.28 -91.2961 689.458L-91.298 689.465C-176.471 666.643 -247.662 612.046 -291.763 535.734C-335.864 459.421 -347.596 370.525 -324.793 285.423C-301.989 200.32 -247.381 129.2 -171.032 85.1615C-94.6838 41.1233 -5.73165 29.4366 79.4411 52.2586C164.614 75.0805 235.805 129.678 279.906 205.99C324.007 282.303 335.737 371.206 312.936 456.301C290.134 541.397 235.533 612.519 159.177 656.555ZM77.7873 58.4304C161.311 80.8107 231.125 134.351 274.376 209.183C317.626 284.021 329.125 371.194 306.766 454.641C284.406 538.087 230.852 607.837 155.987 651.019C81.1102 694.213 -6.11827 705.667 -89.6424 683.286C-173.166 660.906 -242.98 607.366 -286.231 532.534C-329.481 457.696 -340.98 370.523 -318.621 287.076C-296.261 203.63 -242.715 133.878 -167.842 90.6983C-92.9671 47.5111 -5.73864 36.0572 77.7855 58.4375L77.7873 58.4304ZM-88.9023 680.525C-6.11801 702.707 80.3445 691.35 154.549 648.549C228.756 605.742 281.832 536.62 303.995 453.906C326.158 371.192 314.756 284.785 271.893 210.617C229.032 136.441 159.83 83.3813 77.0454 61.1993C-5.73889 39.0173 -92.2014 50.3744 -166.406 93.1747C-240.613 135.982 -293.689 205.104 -315.852 287.818C-338.015 370.532 -326.613 456.939 -283.75 531.107C-240.889 605.283 -171.687 658.343 -88.9023 680.525ZM266.356 213.807C224.344 141.113 156.529 89.1043 75.3935 67.3641C-5.73514 45.6257 -90.4758 56.7569 -163.206 98.7063C-235.937 140.656 -287.952 208.409 -309.673 289.474C-331.394 370.539 -320.225 455.222 -278.213 527.917C-236.201 600.611 -168.386 652.62 -87.2506 674.36C-6.11485 696.1 78.6188 684.967 151.35 643.018C224.073 601.066 276.095 533.315 297.816 452.25C319.537 371.185 308.368 286.502 266.356 213.807ZM149.923 640.536C77.8531 682.104 -6.11271 693.133 -86.5086 671.591C-166.905 650.049 -234.106 598.514 -275.737 526.481C-317.358 454.442 -328.434 370.539 -306.909 290.207C-285.384 209.874 -233.846 142.741 -161.776 101.174C-89.7063 59.6061 -5.74051 48.5768 74.6554 70.1188C155.051 91.6608 222.253 143.195 263.883 215.229C305.505 287.268 316.581 371.17 295.056 451.503C273.531 531.835 221.992 598.968 149.923 640.536ZM72.9998 76.2977C235.56 119.856 332.404 287.43 288.882 449.856C245.36 612.283 77.7035 708.984 -84.8567 665.426C-247.417 621.868 -344.261 454.294 -300.739 291.868C-257.217 129.441 -89.5604 32.7397 72.9998 76.2977ZM-84.1167 662.664C76.9146 705.813 242.999 610.019 286.113 449.114C329.228 288.21 233.291 122.208 72.2598 79.0595C-88.7716 35.9112 -254.856 131.705 -297.97 292.609C-341.085 453.514 -245.146 619.509 -84.1148 662.657L-84.1167 662.664ZM279.942 447.461C322.142 289.966 228.234 127.468 70.606 85.2313C-87.0224 42.9949 -249.598 136.769 -291.799 294.263C-333.999 451.758 -240.091 614.256 -82.463 656.492C75.1654 698.729 237.741 604.955 279.942 447.461ZM277.173 446.719C235.38 602.691 74.3836 695.559 -81.723 653.731L-81.7211 653.724C-237.821 611.897 -330.823 450.978 -289.03 295.005C-247.237 139.032 -86.2335 46.1664 69.866 87.9932C225.966 129.82 318.966 290.746 277.173 446.719ZM68.2141 94.158C220.911 135.073 311.884 292.488 271.003 445.058C230.122 597.628 72.6344 688.476 -80.0692 647.559C-232.773 606.642 -323.739 449.229 -282.858 296.659C-241.977 144.089 -84.4843 53.2501 68.2123 94.165L68.2141 94.158ZM-79.3273 644.79C71.8475 685.297 227.761 595.364 268.234 444.316C308.707 293.268 218.649 137.427 67.4741 96.9198C-83.7007 56.4127 -239.614 146.346 -280.087 297.394C-320.56 448.442 -230.495 604.285 -79.3273 644.79ZM262.062 442.662C301.623 295.017 213.592 142.687 65.8204 103.092L65.8185 103.099C-81.9533 63.5034 -234.356 151.41 -273.917 299.055C-313.479 446.7 -225.447 599.03 -77.6755 638.625C70.0963 678.221 222.501 590.307 262.062 442.662ZM259.293 441.92C220.14 588.043 69.3094 675.042 -76.9335 635.856C-223.176 596.671 -310.3 445.913 -271.146 299.789C-231.993 153.666 -81.1626 66.6678 65.0803 105.853C211.323 145.039 298.447 295.797 259.293 441.92ZM63.4266 112.025C206.267 150.299 291.363 297.546 253.121 440.267C214.88 582.987 67.5583 667.965 -75.2817 629.692C-218.122 591.418 -303.218 444.17 -264.976 301.45C-226.735 158.73 -79.4152 73.7585 63.4247 112.032L63.4266 112.025ZM-74.5397 626.923C66.7713 664.787 212.519 580.723 250.353 439.525C288.187 298.326 203.998 152.651 62.6866 114.787C-78.6245 76.923 -224.372 160.987 -262.206 302.185C-300.04 443.383 -215.851 589.058 -74.5397 626.923ZM244.181 437.871C281.103 300.076 198.941 157.911 61.0328 120.959L61.0309 120.966C-76.8772 84.0137 -219.114 166.05 -256.036 303.846C-292.958 441.641 -210.796 583.805 -72.8879 620.758C65.0202 657.71 207.259 575.666 244.181 437.871ZM241.412 437.129C204.897 573.403 64.2403 654.534 -72.146 617.989L-72.1479 617.996C-208.527 581.453 -289.78 440.854 -253.265 304.581C-216.751 168.307 -76.0865 87.1781 60.2928 123.721C196.672 160.264 277.926 300.856 241.412 437.129ZM58.6391 129.893C191.615 165.524 270.841 302.612 235.24 435.475C199.639 568.339 62.4892 647.457 -70.4942 611.824C-203.477 576.191 -282.696 439.105 -247.095 306.242C-211.494 173.378 -74.3461 94.2669 58.6372 129.9L58.6391 129.893ZM-69.7522 609.055C61.7022 644.278 197.278 566.075 232.471 434.733C267.664 303.392 189.354 167.878 57.899 132.654C-73.5554 97.4313 -209.131 175.635 -244.324 306.976C-279.517 438.318 -201.209 573.839 -69.7541 609.062L-69.7522 609.055ZM226.299 433.08C260.58 305.141 184.297 173.138 56.2453 138.826L56.2434 138.833C-71.8081 104.522 -203.873 180.698 -238.154 308.637C-272.435 436.576 -196.152 568.579 -68.1004 602.891C59.9511 637.202 192.018 561.018 226.299 433.08ZM223.529 432.345C189.655 558.762 59.1623 634.03 -67.3604 600.129C-193.883 566.227 -269.259 435.796 -235.386 309.379C-201.512 182.962 -71.0192 107.693 55.5034 141.595C182.026 175.497 257.402 305.928 223.529 432.345ZM53.8515 147.76C176.971 180.75 250.32 307.67 217.357 430.691C184.393 553.712 57.4131 626.947 -65.7066 593.957C-188.826 560.967 -262.175 434.047 -229.212 311.026C-196.248 188.005 -69.2662 114.763 53.8534 147.753L53.8515 147.76ZM-64.9666 591.195C56.6242 623.775 182.034 551.441 214.588 429.949C247.142 308.457 174.7 183.109 53.1096 150.529C-68.4812 117.949 -193.891 190.283 -226.445 311.775C-258.999 433.267 -186.557 558.615 -64.9666 591.195ZM208.416 428.295C240.06 310.199 169.646 188.362 51.4578 156.694L51.4597 156.687C-66.7282 125.018 -188.627 195.325 -220.271 313.421C-251.915 431.518 -181.508 553.353 -63.3128 585.023C54.8821 616.693 176.772 546.392 208.416 428.295ZM205.647 427.553C174.413 544.121 54.0932 613.522 -62.5728 582.261C-179.232 551.003 -248.738 430.738 -217.504 314.17C-186.27 197.603 -65.9431 128.204 50.7159 159.462C167.375 190.721 236.881 310.986 205.647 427.553ZM49.064 165.627C162.327 195.976 229.798 312.735 199.475 425.9C169.153 539.064 52.344 606.438 -60.919 576.09C-174.182 545.741 -241.653 428.981 -211.33 315.817C-181.008 202.653 -64.1971 135.271 49.0659 165.62L49.064 165.627ZM-60.179 573.328C51.5552 603.267 166.794 536.793 196.706 425.158C226.619 313.522 160.056 198.335 48.3221 168.396C-63.4121 138.457 -178.651 204.931 -208.563 316.566C-238.476 428.202 -171.913 543.389 -60.179 573.328ZM190.535 423.504C219.537 315.264 155.001 203.588 46.6703 174.561L46.6721 174.554C-61.6591 145.527 -173.387 209.973 -202.39 318.213C-231.392 426.452 -166.857 538.129 -58.5253 567.156C49.8059 596.183 161.532 531.744 190.535 423.504ZM187.766 422.762C159.173 529.473 49.0171 593.012 -57.7853 564.394C-164.588 535.776 -228.216 425.672 -199.623 318.962C-171.03 212.251 -60.874 148.712 45.9284 177.33C152.731 205.947 216.359 316.051 187.766 422.762ZM44.2765 183.495C147.676 211.2 209.277 317.794 181.594 421.108C153.911 524.423 47.2679 585.928 -56.1315 558.222C-159.531 530.516 -221.132 423.923 -193.449 320.608C-165.766 217.294 -59.121 155.782 44.2784 183.488L44.2765 183.495ZM-55.3915 555.46C46.4861 582.758 151.552 522.152 178.827 420.359C206.102 318.566 145.407 213.553 43.5364 186.256C-58.3341 158.96 -163.407 219.564 -190.68 321.35C-217.954 423.136 -157.262 528.164 -55.3915 555.46ZM172.653 418.713C199.017 320.323 140.35 218.813 41.8827 192.428C-56.5848 166.044 -158.147 224.621 -184.51 323.011C-210.874 421.401 -152.207 522.911 -53.7397 549.296C44.7279 575.68 146.29 517.103 172.653 418.713ZM169.884 417.971C143.929 514.839 43.9461 572.51 -52.9996 546.534C-149.945 520.557 -207.697 420.621 -181.741 323.753C-155.786 226.885 -55.8031 169.214 41.1427 195.19C138.088 221.167 195.84 321.103 169.884 417.971ZM39.4889 201.362C133.032 226.427 188.756 322.852 163.712 416.317C138.669 509.782 42.1969 565.427 -51.3459 540.362C-144.889 515.297 -200.613 418.872 -175.569 325.407C-150.525 231.941 -54.0538 176.297 39.4889 201.362ZM-50.6059 537.6C41.408 562.255 136.307 507.519 160.944 415.575C185.58 323.632 130.763 228.779 38.7489 204.124C-53.265 179.469 -148.164 234.205 -172.801 326.149C-197.437 418.092 -142.62 512.945 -50.6059 537.6ZM154.774 413.914C178.496 325.381 125.708 234.032 37.097 210.289C-51.5139 186.545 -142.904 239.262 -166.627 327.795C-190.349 416.329 -137.561 507.678 -48.9502 531.421C39.6607 555.164 131.051 502.448 154.774 413.914ZM152.005 413.172C128.69 500.184 38.8719 551.993 -48.2102 528.659C-135.292 505.326 -187.173 415.549 -163.858 328.537C-140.543 241.526 -50.725 189.717 36.357 213.05C123.439 236.384 175.319 326.161 152.005 413.172ZM34.7033 219.222C118.382 241.644 168.236 327.91 145.833 411.519C123.43 495.127 37.1226 544.909 -46.5565 522.488C-130.236 500.066 -180.089 413.8 -157.686 330.191C-135.283 246.582 -48.9758 196.8 34.7033 219.222ZM-45.8164 519.726C36.3408 541.74 121.069 492.864 143.064 410.777C165.059 328.69 116.113 243.996 33.9633 221.984C-48.187 199.972 -132.922 248.846 -154.917 330.933C-176.912 413.02 -127.967 497.714 -45.8164 519.726ZM136.892 409.123C157.975 330.439 111.057 249.256 32.3095 228.156C-46.4378 207.056 -127.662 253.903 -148.745 332.587C-169.829 411.271 -122.91 492.454 -44.1627 513.554C34.5846 534.654 115.809 487.807 136.892 409.123ZM134.123 408.381C113.448 485.543 33.8028 531.485 -43.4227 510.792C-120.648 490.1 -166.652 410.491 -145.977 333.329C-125.301 256.167 -45.656 210.225 31.5695 230.918C108.795 251.61 154.799 331.219 134.123 408.381ZM29.9158 237.09C103.738 256.87 147.715 332.968 127.952 406.727C108.188 480.487 32.0536 524.401 -41.7689 504.62C-115.591 484.84 -159.568 408.741 -139.805 334.982C-120.041 261.223 -43.9067 217.309 29.9158 237.09ZM-41.0289 501.858C31.2647 521.229 105.827 478.223 125.183 405.986C144.539 333.748 101.469 259.222 29.1757 239.851C-43.1179 220.48 -117.68 263.487 -137.036 335.724C-156.392 407.962 -113.323 482.487 -41.0289 501.858ZM119.011 404.332C137.455 335.497 96.4126 264.482 27.522 246.023C-41.3687 227.564 -112.42 268.544 -130.864 337.378C-149.308 406.212 -108.266 477.227 -39.3752 495.687C29.5155 514.146 100.567 473.166 119.011 404.332ZM116.242 403.59C98.2056 470.902 28.7337 510.976 -38.6351 492.925C-106.004 474.873 -146.139 405.43 -128.102 338.118C-110.066 270.806 -40.5798 230.735 26.7819 248.785C94.1437 266.835 134.278 336.277 116.242 403.59ZM25.1282 254.957C89.087 272.095 127.193 338.034 110.07 401.936C92.9475 465.839 26.9755 503.898 -36.9833 486.76C-100.942 469.622 -139.048 403.683 -121.923 339.774C-104.799 275.864 -38.8306 237.819 25.1282 254.957ZM-36.2433 483.998C26.1937 500.728 90.5845 463.582 107.299 401.201C124.014 338.821 86.8162 274.454 24.3863 257.726C-38.0437 240.998 -102.449 278.14 -119.163 340.521C-135.878 402.901 -98.6802 467.268 -36.2433 483.998ZM101.128 399.548C116.932 340.563 81.7685 279.709 22.7345 263.891C-36.2925 248.074 -97.1795 283.192 -112.984 342.176C-128.789 401.161 -93.6184 462.017 -34.5914 477.833C24.4356 493.65 85.3226 458.532 101.128 399.548ZM98.3657 398.807C82.9704 456.263 23.6557 490.473 -33.8495 475.065C-91.3617 459.654 -125.618 400.372 -110.223 342.916C-94.8274 285.461 -35.5197 251.249 21.9925 266.659C79.5048 282.07 113.761 341.352 98.3657 398.807ZM20.3407 272.824C74.4429 287.321 106.672 343.092 92.1868 397.152C77.7014 451.212 21.9046 483.396 -32.1976 468.9C-86.2999 454.403 -118.529 398.632 -104.044 344.572C-89.5585 290.512 -33.7616 258.328 20.3407 272.824ZM-31.4557 466.131C21.1176 480.218 75.3493 448.943 89.4249 396.412C103.501 343.881 72.1791 289.682 19.5987 275.593C-32.9817 261.504 -87.2063 292.781 -101.282 345.312C-115.358 397.843 -84.0361 452.042 -31.4557 466.131ZM83.2461 394.756C96.4118 345.621 67.1173 294.933 17.9469 281.758C-31.2235 268.583 -81.9374 297.833 -95.1031 346.968C-108.269 396.103 -78.9743 446.791 -29.8039 459.966C19.3665 473.141 70.0803 443.891 83.2461 394.756ZM80.4842 394.016C67.7282 441.622 18.5866 469.965 -29.0619 457.197C-76.7105 444.43 -105.097 395.314 -92.3412 347.708C-79.5852 300.101 -30.4436 271.759 17.205 284.527C64.8535 297.294 93.2403 346.41 80.4842 394.016ZM15.5532 290.691C59.7987 302.547 86.1496 348.157 74.3054 392.361C62.4611 436.564 16.8285 462.886 -27.4101 451.032C-71.6486 439.179 -98.0066 393.567 -86.1624 349.363C-74.3181 305.16 -28.6854 278.838 15.5532 290.691ZM-26.6682 448.264C16.0485 459.709 60.1071 434.302 71.5435 391.621C82.98 348.939 57.5279 304.906 14.8112 293.46C-27.9055 282.014 -71.964 307.422 -83.4005 350.103C-94.837 392.785 -69.3849 436.818 -26.6682 448.264ZM65.3647 389.965C75.8893 350.686 52.4731 310.159 13.1594 299.625C-26.1473 289.093 -66.697 312.48 -77.2217 351.759C-87.7463 391.037 -64.3301 431.565 -25.0163 442.099C14.2974 452.633 54.84 429.243 65.3647 389.965ZM62.6028 389.225C52.4879 426.975 13.5105 449.454 -24.2744 439.33C-62.0663 429.204 -84.5748 390.249 -74.4598 352.499C-64.3448 314.749 -25.3745 292.268 12.4175 302.394C50.2094 312.52 72.7178 351.475 62.6028 389.225ZM10.7656 308.559C45.1475 317.771 65.629 353.216 56.424 387.569C47.2189 421.923 11.7594 442.378 -22.6225 433.165C-57.0045 423.952 -77.486 388.508 -68.281 354.155C-59.0759 319.801 -23.6163 299.346 10.7656 308.559ZM-21.8825 430.403C10.9776 439.208 44.8649 419.661 53.6622 386.829C62.4595 353.997 42.8857 320.125 10.0256 311.321C-22.8345 302.516 -56.7218 322.063 -65.5191 354.895C-74.3164 387.727 -54.7426 421.598 -21.8825 430.403ZM47.4833 385.174C55.3687 355.745 37.8219 325.384 8.37186 317.492C-21.0782 309.601 -51.4548 327.121 -59.3402 356.55C-67.2257 385.979 -49.6789 416.34 -20.2288 424.231C9.2213 432.123 39.5978 414.603 47.4833 385.174ZM44.7215 384.434C37.2438 412.341 8.43951 428.953 -19.4887 421.47C-47.417 413.986 -64.0561 385.197 -56.5784 357.29C-49.1007 329.383 -20.2965 312.771 7.63182 320.254C35.5601 327.738 52.1991 356.526 44.7215 384.434ZM5.97997 326.419C30.5053 332.991 45.1103 358.267 38.5445 382.771C31.9786 407.275 6.68513 421.86 -17.8331 415.291C-42.3514 408.721 -56.9635 383.443 -50.3976 358.939C-43.8318 334.435 -18.5383 319.849 5.97997 326.419ZM-17.0931 412.529C5.90334 418.691 29.6245 405.013 35.7826 382.031C41.9407 359.049 28.2364 335.343 5.23994 329.181C-17.7565 323.019 -41.4777 336.697 -47.6358 359.679C-53.7939 382.661 -40.0895 406.367 -17.0931 412.529ZM29.6038 380.375C34.8481 360.803 23.1797 340.603 3.58621 335.353C-16.0073 330.103 -36.2125 341.762 -41.4569 361.335C-46.7013 380.907 -35.0328 401.107 -15.4393 406.357C4.15411 411.607 24.3594 399.948 29.6038 380.375ZM26.8419 379.635C22.0053 397.686 3.36528 408.436 -14.6993 403.595C-32.771 398.753 -43.5317 380.125 -38.6951 362.075C-33.8585 344.024 -15.2255 333.272 2.84618 338.115C20.9178 342.957 31.6785 361.585 26.8419 379.635Z" fill="url(#paint0_linear_2_12351)"/>
<defs>
<linearGradient id="paint0_linear_2_12351" x1="-267.132" y1="2929.5" x2="-237.76" y2="2822.58" gradientUnits="userSpaceOnUse">
<stop stop-color="#EAC400" stop-opacity="0"/>
<stop offset="1" stop-color="#E1E1E1"/>
</linearGradient>
</defs>
</svg>
