<svg width="731" height="276" viewBox="0 0 731 276" fill="none" xmlns="http://www.w3.org/2000/svg">
<path opacity="0.66" fill-rule="evenodd" clip-rule="evenodd" d="M546.337 517.518C427.37 636.486 269.244 702.036 101.074 702.107C-67.096 702.177 -225.178 636.758 -344.049 517.887C-462.92 399.016 -528.33 240.943 -528.259 72.7732C-528.198 -95.3879 -462.639 -253.522 -343.671 -372.49C-224.704 -491.457 -66.5779 -557.008 101.592 -557.078C269.762 -557.148 427.835 -491.721 546.697 -372.859C665.559 -253.997 730.987 -95.9236 730.917 72.2463C730.846 240.416 665.287 398.551 546.328 517.509L546.337 517.518ZM-340.221 -369.039C-458.266 -250.994 -523.316 -94.0885 -523.378 72.7732C-523.466 239.644 -458.538 396.496 -340.598 514.437C-222.658 632.377 -65.7965 697.295 101.065 697.234C267.936 697.163 424.841 632.113 542.878 514.076C660.915 396.04 725.973 239.126 726.035 72.2639C726.105 -94.6066 661.187 -251.451 543.238 -369.399C425.289 -487.348 268.436 -552.258 101.574 -552.197C-65.2785 -552.126 -222.193 -487.085 -340.229 -369.048L-340.221 -369.039ZM535.204 506.385C419.213 622.377 265.038 686.294 101.074 686.356C-62.8816 686.426 -217.012 622.64 -332.907 506.745C-448.801 390.851 -512.579 236.729 -512.508 72.7732C-512.447 -91.1911 -448.529 -245.366 -332.538 -361.357C-216.547 -477.348 -62.3725 -541.266 101.592 -541.327C265.556 -541.389 419.678 -477.611 535.573 -361.717C651.467 -245.822 715.253 -91.7091 715.183 72.2641C715.122 236.228 651.204 390.403 535.213 506.394L535.204 506.385ZM-329.097 -357.915C-444.166 -242.846 -507.574 -89.9004 -507.635 72.7645C-507.706 235.438 -444.42 388.331 -329.456 503.295C-214.493 618.259 -61.5821 681.544 101.074 681.474C263.73 681.404 416.685 618.004 531.754 502.935C646.823 387.866 710.231 234.92 710.293 72.2552C710.363 -90.4009 647.086 -243.303 532.114 -358.275C417.141 -473.248 264.239 -536.524 101.583 -536.454C-61.073 -536.384 -214.036 -472.976 -329.097 -357.915ZM101.083 670.613C260.842 670.543 411.057 608.267 524.071 495.252L524.062 495.244C637.077 382.229 699.353 232.014 699.423 72.2552C699.493 -87.5036 637.34 -237.666 524.422 -350.584C411.504 -463.502 261.342 -525.655 101.583 -525.585C-58.1757 -525.514 -208.391 -463.239 -321.405 -350.224C-434.42 -237.209 -496.696 -86.9943 -496.766 72.7645C-496.827 232.514 -434.683 382.686 -321.765 495.604C-208.847 608.522 -58.676 670.683 101.083 670.613ZM-491.893 72.7557C-491.823 -85.7037 -430.056 -234.69 -317.964 -346.782C-205.88 -458.866 -56.8763 -520.633 101.574 -520.712C260.025 -520.773 408.976 -459.13 520.972 -347.134C632.968 -235.137 694.612 -86.1866 694.55 72.264C694.471 230.715 632.714 379.709 520.621 491.802C408.528 603.895 259.533 665.67 101.083 665.732C-57.3678 665.793 -206.319 604.149 -318.315 492.153C-430.311 380.157 -491.955 231.224 -491.893 72.7557ZM512.938 484.12C402.9 594.158 256.644 654.792 101.091 654.853C-54.4621 654.915 -200.665 594.404 -310.615 484.453C-420.566 374.503 -481.077 228.3 -481.015 72.7469C-480.954 -82.7888 -420.311 -229.053 -310.273 -339.091C-200.235 -449.129 -53.9794 -509.763 101.574 -509.825C257.127 -509.886 403.33 -449.375 513.28 -339.425C623.231 -229.474 683.733 -83.2629 683.68 72.2815C683.619 227.835 622.976 374.099 512.947 484.128L512.938 484.12ZM-306.831 -335.649C-415.948 -226.533 -476.072 -81.4894 -476.143 72.7556C-476.204 227.009 -416.193 371.992 -307.174 481.011C-198.154 590.031 -53.1539 650.042 101.082 649.98C255.327 649.91 400.371 589.785 509.487 480.669C618.604 371.553 678.728 226.509 678.799 72.264C678.869 -81.9811 618.85 -226.972 509.83 -335.992C400.81 -445.012 255.81 -505.022 101.574 -504.961C-52.6712 -504.891 -197.715 -444.766 -306.831 -335.649ZM101.092 639.102C252.431 639.041 394.744 580.049 501.806 472.987L501.815 472.995C608.877 365.933 667.869 223.62 667.93 72.2814C667.992 -79.0575 609.122 -221.318 502.148 -328.292C395.174 -435.266 252.914 -494.135 101.575 -494.074C-49.7641 -494.012 -192.077 -435.02 -299.139 -327.958C-406.201 -220.896 -465.202 -78.592 -465.263 72.7468C-465.334 224.095 -406.456 366.346 -299.482 473.32C-192.507 580.294 -50.247 639.164 101.092 639.102ZM-460.382 72.7468C-460.32 -77.2926 -401.838 -218.377 -295.697 -324.517L-295.706 -324.525C-189.566 -430.665 -48.4823 -489.148 101.557 -489.21C251.597 -489.271 392.637 -430.903 498.689 -324.85C604.741 -218.798 663.11 -77.758 663.048 72.2815C662.987 222.321 604.504 363.405 498.364 469.545C392.224 575.685 251.14 634.168 101.101 634.229C-48.9388 634.291 -189.988 575.913 -296.031 469.87C-402.075 363.826 -460.452 222.795 -460.382 72.7468ZM490.672 461.854C386.587 565.939 248.234 623.289 101.1 623.36C-46.0419 623.421 -184.343 566.176 -288.331 462.187C-392.32 358.199 -449.565 219.88 -449.504 72.7557C-449.451 -74.3952 -392.092 -212.74 -288.007 -316.825C-183.921 -420.911 -45.5678 -478.261 101.566 -478.331C248.708 -478.393 387.008 -421.148 490.997 -317.159C594.986 -213.17 652.24 -74.8605 652.17 72.2727C652.108 219.415 594.749 357.759 490.664 461.845L490.672 461.854ZM-284.565 -313.384C-387.729 -210.22 -444.578 -73.087 -444.64 72.7381C-444.693 218.572 -387.966 355.652 -284.89 458.728C-181.814 561.804 -44.7249 618.54 101.1 618.478C246.934 618.425 384.058 561.567 487.222 458.403C590.386 355.24 647.235 218.107 647.297 72.2815C647.35 -73.5524 590.623 -210.633 487.547 -313.709C384.471 -416.784 247.382 -473.52 101.557 -473.459C-44.2771 -473.406 -181.401 -416.547 -284.565 -313.384ZM101.109 607.6C244.037 607.538 378.43 551.83 479.54 450.721C580.64 349.62 636.357 215.218 636.419 72.2902C636.48 -70.6375 580.868 -204.987 479.847 -306.009C378.826 -407.03 244.476 -462.642 101.548 -462.58C-41.3797 -462.519 -175.773 -406.81 -276.883 -305.701C-377.992 -204.592 -433.7 -70.1984 -433.762 72.7293C-433.814 215.648 -378.211 350.007 -277.19 451.028C-176.169 552.05 -41.8187 607.661 101.109 607.6ZM-428.889 72.7381C-428.827 -68.8902 -373.619 -202.063 -273.432 -302.251C-173.245 -402.438 -40.0715 -457.646 101.557 -457.707C243.185 -457.751 376.306 -402.666 476.414 -302.558C576.522 -202.45 631.625 -69.3293 631.563 72.299C631.502 213.927 576.294 347.101 476.107 447.288C375.919 547.475 242.746 602.683 101.118 602.745C-40.5105 602.788 -173.631 547.703 -273.739 447.595C-373.848 347.487 -428.95 214.366 -428.889 72.7381ZM468.407 439.588C265.829 642.166 -63.6454 642.307 -266.057 439.895C-468.468 237.484 -468.328 -91.9901 -265.75 -294.568C-63.1714 -497.147 266.303 -497.287 468.714 -294.876C671.126 -92.4642 670.985 237.01 468.407 439.588ZM-262.308 -291.127C-462.981 -90.4536 -463.121 235.93 -262.606 436.445C-62.0914 636.96 264.292 636.819 464.965 436.146C665.638 235.473 665.779 -90.9102 465.264 -291.425C264.748 -491.94 -61.6261 -491.791 -262.299 -291.118L-262.308 -291.127ZM-254.915 428.754C-58.6497 625.019 260.842 624.887 457.274 428.455C653.706 232.023 653.838 -87.4686 457.572 -283.734C261.307 -480 -58.1844 -479.868 -254.617 -283.436C-451.049 -87.0031 -451.181 232.488 -254.915 428.754ZM-251.465 425.303C-445.834 230.934 -445.711 -85.4579 -251.175 -279.994L-251.166 -279.985C-56.6391 -474.512 259.753 -474.653 454.122 -280.284C648.491 -85.9145 648.359 230.486 453.832 425.013C259.305 619.541 -57.0957 619.672 -251.465 425.303ZM446.149 417.331C255.863 607.617 -53.6368 607.749 -243.765 417.621C-433.894 227.492 -433.779 -82.0074 -243.484 -272.303C-53.189 -462.598 256.302 -462.721 446.43 -272.592C636.559 -82.4641 636.427 227.036 446.141 417.322L446.149 417.331ZM-240.034 -268.852C-428.424 -80.4622 -428.547 225.938 -240.315 414.17C-52.0828 602.402 254.318 602.279 442.708 413.889C631.098 225.499 631.221 -80.9013 442.989 -269.133C254.757 -457.365 -51.6526 -457.233 -240.034 -268.852ZM-232.623 406.479C-48.6315 590.47 250.868 590.347 435.017 406.198L435.009 406.189C619.158 222.04 619.281 -77.4596 435.289 -261.451C251.298 -445.442 -48.2012 -445.319 -232.351 -261.17C-416.5 -77.0205 -416.614 222.488 -232.623 406.479ZM-229.172 403.028C-411.267 220.934 -411.144 -75.4752 -228.9 -257.719C-46.656 -439.963 249.753 -440.086 431.848 -257.992C613.943 -75.8967 613.82 220.512 431.576 402.756C249.331 585 -47.0775 585.123 -229.172 403.028ZM423.884 395.065C245.881 573.069 -43.627 573.191 -221.481 395.337C-399.335 217.483 -399.221 -72.0335 -221.218 -250.037C-43.2145 -428.04 246.293 -428.163 424.148 -250.309C602.002 -72.4549 601.879 217.053 423.875 395.056L423.884 395.065ZM-217.767 -246.586C-393.866 -70.4882 -393.988 215.929 -218.031 391.887C-42.073 567.844 244.344 567.722 420.443 391.623C596.541 215.525 596.664 -70.8922 420.706 -246.85C244.748 -422.808 -41.6692 -422.685 -217.767 -246.586ZM-210.34 384.196C-38.6228 555.913 240.894 555.79 412.751 383.932L412.742 383.923C584.6 212.066 584.723 -67.4504 413.006 -239.167C241.289 -410.884 -38.2277 -410.761 -210.085 -238.904C-381.943 -67.0464 -382.057 212.479 -210.34 384.196ZM-206.889 380.745C-376.71 210.925 -376.596 -65.4924 -206.635 -235.453L-206.643 -235.462C-36.6912 -405.414 239.743 -405.529 409.564 -235.708C579.385 -65.8876 579.262 210.538 409.309 380.491C239.357 550.443 -37.0688 550.566 -206.889 380.745ZM401.618 372.799C235.907 538.511 -33.627 538.625 -199.198 373.054C-364.769 207.483 -364.673 -62.0507 -198.952 -227.771C-33.232 -393.491 236.293 -393.597 401.864 -228.026C567.435 -62.4546 567.33 207.07 401.609 372.791L401.618 372.799ZM-195.502 -224.321C-359.317 -60.5054 -359.422 205.929 -195.748 369.604C-32.073 533.278 234.361 533.173 398.176 369.358C561.992 205.543 562.097 -60.8918 398.422 -224.566C234.748 -388.241 -31.6955 -388.144 -195.511 -224.329L-195.502 -224.321ZM-188.056 361.912C-28.6225 521.346 230.911 521.241 390.485 361.667L390.477 361.658C550.051 202.083 550.156 -57.4501 390.722 -216.884C231.288 -376.318 -28.245 -376.213 -187.819 -216.638C-347.394 -57.0637 -347.49 202.478 -188.056 361.912ZM-184.615 358.453C-342.152 200.916 -342.047 -55.5273 -184.378 -213.196C-26.7085 -370.866 229.734 -370.971 387.272 -213.434C544.809 -55.896 544.704 200.547 387.035 358.216C229.366 515.885 -27.0772 515.991 -184.615 358.453ZM379.352 350.533C225.924 503.962 -23.6183 504.067 -176.924 350.762C-330.229 197.456 -330.115 -52.0769 -176.687 -205.505C-23.2584 -358.934 226.283 -359.039 379.589 -205.734C532.895 -52.4281 532.789 197.114 379.361 350.542L379.352 350.533ZM-173.245 -202.064C-324.768 -50.5404 -324.874 195.911 -173.473 347.311C-22.0731 498.712 224.378 498.606 375.902 347.083C527.425 195.56 527.53 -50.8917 376.13 -202.292C224.73 -353.692 -21.7219 -353.587 -173.245 -202.064ZM-165.781 339.62C-18.613 486.789 220.937 486.683 368.22 339.401L368.229 339.41C515.511 192.127 515.617 -47.4234 368.448 -194.592C221.28 -341.76 -18.2619 -341.664 -165.553 -194.372C-312.845 -47.0808 -312.95 192.452 -165.781 339.62ZM-162.331 336.17C-307.594 190.907 -307.498 -45.5444 -162.111 -190.931C-16.7342 -336.308 219.726 -336.413 364.989 -191.15C510.252 -45.8869 510.147 190.573 364.769 335.95C219.392 481.328 -17.0677 481.433 -162.331 336.17ZM357.087 328.268C215.942 469.413 -13.6174 469.501 -154.64 328.479C-295.662 187.456 -295.566 -42.0939 -154.42 -183.239C-13.275 -324.385 216.284 -324.473 357.306 -183.45C498.329 -42.4276 498.241 187.131 357.096 328.277L357.087 328.268ZM-150.979 -179.798C-290.219 -40.5574 -290.307 185.911 -151.189 325.028C-12.0721 464.145 214.396 464.058 353.636 324.818C492.877 185.577 492.964 -40.8911 353.847 -180.008C214.73 -319.126 -11.7385 -319.038 -150.979 -179.798ZM-143.499 317.337C-8.61321 452.222 210.954 452.134 345.954 317.135L345.962 317.144C480.962 182.144 481.05 -37.4232 346.164 -172.309C211.279 -307.194 -8.28835 -307.106 -143.288 -172.107C-278.287 -37.107 -278.384 182.452 -143.499 317.337ZM-140.048 313.886C-273.028 180.906 -272.94 -35.5705 -139.846 -168.665C-6.75185 -301.759 209.725 -301.847 342.705 -168.867C475.685 -35.8867 475.597 180.59 342.503 313.684C209.409 446.779 -7.06794 446.867 -140.048 313.886ZM334.821 306.002C205.967 434.856 -3.60866 434.943 -132.357 306.195C-261.105 177.447 -261.009 -32.1201 -132.155 -160.974C-3.30133 -289.827 206.275 -289.915 335.023 -161.167C463.771 -32.4187 463.683 177.157 334.83 306.011L334.821 306.002ZM-128.713 -157.532C-255.67 -30.5748 -255.749 175.902 -128.898 302.754C-2.0458 429.605 204.431 429.509 331.379 302.56C458.327 175.612 458.415 -30.8734 331.572 -157.716C204.729 -284.559 -1.76489 -284.48 -128.713 -157.532ZM-121.215 295.054C1.39595 417.665 200.98 417.577 323.688 294.869C446.396 172.161 446.483 -27.4229 323.872 -150.034C201.261 -272.645 1.67688 -272.557 -121.031 -149.85C-243.739 -27.1419 -243.826 172.442 -121.215 295.054ZM-117.765 291.603C-238.479 170.888 -238.4 -25.5966 -117.589 -146.408C3.22211 -267.219 199.707 -267.298 320.422 -146.583C441.136 -25.8688 441.057 170.616 320.246 291.427C199.435 412.239 2.94999 412.318 -117.765 291.603ZM312.555 283.736C195.984 400.307 6.40012 400.386 -110.074 283.912C-226.548 167.438 -226.469 -22.1461 -109.898 -138.717C6.6723 -255.287 196.256 -255.366 312.73 -138.892C429.204 -22.4183 429.125 167.166 312.555 283.736ZM-106.457 -135.275C-221.122 -20.6096 -221.201 165.884 -106.623 280.461C7.95415 395.039 194.448 394.96 309.113 280.295C423.778 165.629 423.857 -20.8643 309.28 -135.442C194.702 -250.019 8.20874 -249.94 -106.457 -135.275ZM-98.9235 272.779C11.4045 383.107 191.006 383.037 301.43 272.612C411.855 162.188 411.925 -17.4137 301.597 -127.742C191.269 -238.07 11.6679 -237.999 -98.7567 -127.575C-209.181 -17.1503 -209.252 162.451 -98.9235 272.779ZM-95.473 269.329C-203.905 160.897 -203.834 -15.6138 -95.315 -124.133C13.2043 -232.653 189.715 -232.723 298.147 -124.291C406.578 -15.8597 406.508 160.651 297.989 269.17C189.469 377.69 12.9586 377.76 -95.473 269.329ZM290.298 261.479C186.02 365.758 16.4099 365.828 -87.781 261.637C-191.972 157.446 -191.902 -12.1633 -87.623 -116.442C16.6558 -220.721 186.266 -220.791 290.456 -116.6C394.647 -12.4092 394.577 157.201 290.298 261.479ZM-84.1813 -113C-186.564 -10.6181 -186.625 155.892 -84.3305 258.187C17.9639 360.481 184.483 360.411 286.857 258.038C389.23 155.664 389.3 -10.8551 287.006 -113.15C184.711 -215.444 18.1922 -215.374 -84.1813 -113ZM-76.6397 250.496C21.414 348.549 181.032 348.479 279.165 250.346C377.298 152.214 377.368 -7.40472 279.314 -105.458C181.261 -203.512 21.6423 -203.442 -76.4905 -105.309C-174.623 -7.17644 -174.693 152.442 -76.6397 250.496ZM-73.1892 247.045C-169.347 150.888 -169.285 -5.63114 -73.0487 -101.867C23.1876 -198.104 179.707 -198.165 275.864 -102.008C372.021 -5.85071 371.96 150.668 275.723 246.905C179.487 343.141 22.9681 343.202 -73.1892 247.045ZM268.032 239.214C176.037 331.209 26.4186 331.271 -65.498 239.354C-157.415 147.437 -157.353 -2.18069 -65.3576 -94.1763C26.638 -186.172 176.256 -186.233 268.173 -94.3168C360.089 -2.40012 360.028 147.218 268.032 239.214ZM-61.9158 -90.7346C-152.006 -0.644159 -152.068 145.883 -62.0475 235.903C27.9726 325.924 174.5 325.862 264.59 235.772C354.681 145.681 354.742 -0.846115 264.722 -90.8663C174.702 -180.886 28.1745 -180.825 -61.9158 -90.7346ZM-54.3564 228.212C31.4231 313.992 171.05 313.93 256.899 228.081C342.749 142.231 342.81 2.60433 257.031 -83.1751C171.252 -168.955 31.6251 -168.893 -54.2246 -83.0434C-140.074 2.80637 -140.136 142.433 -54.3564 228.212ZM-50.9058 224.762C-134.789 140.879 -134.736 4.35159 -50.7829 -79.6017C33.1703 -163.555 169.706 -163.616 253.589 -79.7334C337.472 4.14958 337.402 140.694 253.458 224.639C169.513 308.583 32.9772 308.645 -50.9058 224.762ZM245.766 216.948C166.063 296.651 36.4189 296.704 -43.2147 217.071C-122.848 137.437 -122.804 7.78449 -43.1006 -71.9193C36.6032 -151.623 166.247 -151.676 245.889 -72.0335C325.532 7.60886 325.47 137.244 245.766 216.948ZM-39.6588 -68.4776C-117.466 9.32978 -117.51 135.874 -39.773 213.611C37.9641 291.348 164.517 291.296 242.316 213.497C320.114 135.699 320.176 9.13657 242.439 -68.6005C164.702 -146.338 38.1485 -146.285 -39.6588 -68.4776ZM-32.0822 205.92C41.423 279.425 161.066 279.381 234.633 205.815C308.191 132.257 308.244 12.6047 234.738 -60.9005C161.233 -134.406 41.581 -134.353 -31.9768 -60.7951C-105.535 12.7627 -105.587 132.415 -32.0822 205.92ZM-28.6405 202.478C-100.24 130.878 -100.188 14.3167 -28.5264 -57.3447C43.1438 -129.015 159.697 -129.059 231.297 -57.4588C302.897 14.1411 302.853 130.694 231.183 202.364C159.512 274.034 42.9594 274.078 -28.6405 202.478ZM223.501 194.682C156.08 262.103 46.4283 262.147 -20.9397 194.778C-88.3078 127.41 -88.2639 17.7585 -20.8431 -49.6623C46.5776 -117.083 156.23 -117.127 223.598 -49.7589C290.966 17.6091 290.922 127.261 223.501 194.682ZM-17.3927 -46.2118C-82.9082 19.3037 -82.9609 125.874 -17.498 191.337C47.9648 256.8 154.526 256.756 220.051 191.231C285.575 125.707 285.619 19.1456 220.156 -46.3172C154.693 -111.78 48.1316 -111.736 -17.3927 -46.2118ZM-9.7984 183.637C51.4325 244.868 151.093 244.824 212.368 183.549C273.643 122.274 273.687 22.6137 212.456 -38.6173C151.225 -99.8481 51.5642 -99.8042 -9.71062 -38.5294C-70.9855 22.7454 -71.0293 122.406 -9.7984 183.637ZM-6.35669 180.195C-65.6824 120.869 -65.6385 24.2995 -6.26015 -35.0789C53.1182 -94.4573 149.688 -94.5012 209.014 -35.1755C268.34 24.1502 268.296 120.72 208.917 180.099C149.539 239.477 52.969 239.521 -6.35669 180.195ZM201.235 172.416C146.097 227.554 56.4282 227.58 1.34322 172.495C-53.7418 117.41 -53.7067 27.7324 1.4222 -27.3965C56.5511 -82.5254 146.229 -82.5605 201.314 -27.4756C256.399 27.6095 256.364 117.287 201.235 172.416ZM4.87272 -23.946C-48.3597 29.2864 -48.4036 115.865 4.78493 169.053C57.9735 222.242 144.552 222.198 197.784 168.966C251.017 115.733 251.061 29.1547 197.872 -24.0338C144.684 -77.2223 58.1051 -77.1784 4.87272 -23.946ZM12.4849 161.353C61.4328 210.301 141.11 210.275 190.102 161.283C239.085 112.3 239.12 32.614 190.172 -16.3339C141.224 -65.2817 61.5469 -65.2554 12.5551 -16.2636C-36.4366 32.7282 -36.463 112.406 12.4849 161.353ZM15.9266 157.912C-31.116 110.869 -31.0809 34.2734 16.0056 -12.8131C63.1009 -59.9084 139.688 -59.9348 186.73 -12.8921C233.773 34.1505 233.747 110.737 186.652 157.833C139.556 204.928 62.9693 204.954 15.9266 157.912ZM178.969 150.15C136.123 192.996 66.4373 193.023 23.6266 150.212C-19.1841 107.401 -19.1578 37.7151 23.688 -5.13069C66.5339 -47.9765 136.22 -48.0029 179.031 -5.19218C221.841 37.6185 221.815 107.305 178.969 150.15ZM27.1297 -1.68899C-13.8196 39.2604 -13.846 105.856 27.0683 146.77C67.9826 187.684 134.578 187.658 175.527 146.709C216.477 105.759 216.503 39.1638 175.589 -1.75044C134.674 -42.6647 68.0791 -42.6384 27.1297 -1.68899ZM34.7679 139.07C71.4415 175.744 131.136 175.717 167.836 139.017C204.536 102.317 204.562 42.623 167.889 5.94938C131.215 -30.7242 71.5205 -30.6978 34.8206 6.00209C-1.87934 42.702 -1.90568 102.396 34.7679 139.07ZM38.2096 135.628C3.43251 100.851 3.45883 44.2473 38.2623 9.4438C73.0658 -25.3597 129.67 -25.386 164.447 9.39113C199.224 44.1682 199.198 100.772 164.394 135.576C129.591 170.379 72.9867 170.405 38.2096 135.628ZM156.712 127.893C126.149 158.456 76.4547 158.474 45.9182 127.937C15.3818 97.4007 15.4081 47.6978 45.9621 17.1438C76.5161 -13.4102 126.219 -13.4365 156.755 17.0999C187.292 47.6363 187.266 97.3392 156.712 127.893ZM49.4038 20.5856C20.7463 49.2431 20.7199 95.8555 49.3599 124.495C77.9999 153.135 124.612 153.109 153.27 124.452C181.927 95.794 181.954 49.1817 153.314 20.5417C124.674 -8.09831 78.0614 -8.072 49.4038 20.5856ZM57.0608 116.796C81.4513 141.186 121.163 141.177 145.58 116.76C169.996 92.3435 170.005 52.6321 145.615 28.2416C121.224 3.85102 81.5127 3.85981 57.0959 28.2767C32.679 52.6936 32.6702 92.405 57.0608 116.796ZM60.5025 113.354C38.0084 90.8597 38.026 54.23 60.5376 31.7184C83.058 9.19798 119.679 9.18919 142.173 31.6833C164.667 54.1773 164.658 90.7982 142.138 113.319C119.617 135.839 82.9966 135.848 60.5025 113.354Z" fill="url(#paint0_linear_2_21358)"/>
<defs>
<linearGradient id="paint0_linear_2_21358" x1="597.055" y1="181.614" x2="-340.945" y2="-428.386" gradientUnits="userSpaceOnUse">
<stop stop-color="#EAC400" stop-opacity="0"/>
<stop offset="1" stop-color="#FFEFB8"/>
</linearGradient>
</defs>
</svg>
