<svg width="1440" height="583" viewBox="0 0 1440 583" fill="none" xmlns="http://www.w3.org/2000/svg">
<mask id="mask0_2_11913" style="mask-type:alpha" maskUnits="userSpaceOnUse" x="0" y="0" width="1440" height="583">
<rect width="1440" height="583" fill="#FAF9F2"/>
</mask>
<g mask="url(#mask0_2_11913)">
<path fill-rule="evenodd" clip-rule="evenodd" d="M436.714 16.9778C599.227 60.5229 735.058 164.688 819.204 310.293C903.35 455.897 925.736 625.509 882.227 787.89C838.717 950.271 734.527 1085.95 588.852 1169.98C443.189 1254.01 273.461 1276.3 110.949 1232.75C-51.5638 1189.21 -187.395 1085.04 -271.541 939.436C-355.687 793.832 -378.061 624.223 -334.555 461.854C-291.048 299.486 -186.867 163.787 -41.1922 79.7631C104.482 -4.26098 274.211 -26.5521 436.711 16.9898L436.714 16.9778ZM112.212 1228.04C273.465 1271.25 441.874 1249.13 586.411 1165.75C730.969 1082.39 834.344 947.736 877.513 786.627C920.682 625.518 898.472 457.213 814.988 312.737C731.492 168.258 596.705 64.899 435.463 21.6945C274.222 -21.51 105.801 0.604283 -38.7361 83.9818C-183.285 167.356 -286.657 301.999 -329.829 463.121C-373.002 624.242 -350.789 792.535 -267.305 937.011C-183.817 1081.47 -49.0327 1184.85 112.208 1228.05L112.212 1228.04ZM432.64 32.1855C591.086 74.6412 723.528 176.202 805.563 318.168C887.602 460.123 909.427 625.497 867.007 783.812C824.586 942.127 723.001 1074.42 580.976 1156.34C438.948 1238.27 273.47 1260 115.024 1217.54C-43.423 1175.09 -175.865 1073.53 -257.9 931.561C-339.935 789.594 -361.764 624.232 -319.344 465.917C-276.923 307.602 -175.35 175.306 -33.3101 93.3799C108.718 11.451 274.196 -10.2822 432.643 32.1735L432.64 32.1855ZM116.283 1212.84C273.471 1254.96 437.63 1233.4 578.532 1152.12C719.447 1070.85 820.214 939.592 862.293 782.549C904.373 625.505 882.724 461.438 801.336 320.609C719.947 179.78 588.564 79.0172 431.377 36.899C274.189 -5.21925 110.03 16.3403 -30.8725 97.6195C-171.772 178.887 -272.55 310.137 -314.633 467.192C-356.716 624.248 -335.065 788.303 -253.676 929.132C-172.287 1069.96 -40.892 1170.73 116.283 1212.84ZM791.926 326.032C711.985 187.712 582.946 88.7597 428.565 47.3934L428.561 47.4054C274.18 6.03918 112.953 27.2143 -25.4378 107.033C-163.828 186.851 -262.796 315.759 -304.127 470.008C-345.458 624.256 -324.203 785.377 -244.262 923.697C-164.322 1062.02 -35.2823 1160.97 119.099 1202.34C273.48 1243.7 434.707 1222.53 573.098 1142.71C711.476 1062.89 810.456 933.983 851.787 779.734C893.118 625.485 871.866 464.352 791.926 326.032ZM570.654 1138.49C433.389 1217.66 273.48 1238.66 120.358 1197.63C-32.7512 1156.61 -160.744 1058.45 -240.038 921.269C-319.316 784.077 -340.407 624.26 -299.413 471.27C-258.42 318.281 -160.247 190.421 -22.9937 111.248C114.268 32.0916 274.18 11.0781 427.302 52.1069C580.423 93.1357 708.419 191.281 787.698 328.473C866.976 465.664 888.067 625.481 847.073 778.471C806.08 931.461 707.922 1059.31 570.654 1138.49ZM424.49 62.6012C574.805 102.878 700.443 199.222 778.273 333.904C856.103 468.587 876.8 625.457 836.555 775.652C796.31 925.848 699.951 1051.35 565.207 1129.08C430.478 1206.79 273.489 1227.4 123.174 1187.13C-27.1416 1146.85 -152.78 1050.51 -230.61 915.825C-308.439 781.143 -329.137 624.272 -288.892 474.077C-248.647 323.882 -152.275 198.38 -17.5438 120.653C117.2 42.9296 274.19 22.3157 424.493 62.5893L424.49 62.6012ZM124.433 1182.43C273.489 1222.37 429.163 1201.91 562.778 1124.85C696.397 1047.78 791.95 923.317 831.854 774.393C871.758 625.469 851.228 469.89 774.057 336.348C696.874 202.803 572.282 107.254 423.227 67.3147C274.171 27.3753 118.497 47.8277 -15.1181 124.889C-148.733 201.951 -244.29 326.425 -284.194 475.349C-324.098 624.272 -303.568 779.851 -226.397 913.393C-149.214 1046.94 -24.6225 1142.49 124.433 1182.43ZM764.632 341.78C688.909 210.747 566.664 116.996 420.415 77.8091L420.418 77.7971C274.169 38.6097 121.426 58.6776 -9.66823 134.294C-140.762 209.91 -234.529 332.022 -273.684 478.152C-312.839 624.281 -292.691 776.917 -216.969 907.949C-141.246 1038.98 -19.0008 1132.73 127.248 1171.92C273.498 1211.11 426.237 1191.05 557.331 1115.44C688.437 1039.82 782.192 917.707 821.347 771.578C860.503 625.448 840.354 472.812 764.632 341.78ZM554.891 1111.21C424.922 1186.17 273.498 1206.07 128.508 1167.22L128.505 1167.23C-16.485 1128.38 -137.675 1035.44 -212.748 905.533C-287.82 775.625 -307.792 624.297 -268.974 479.427C-230.156 334.557 -137.196 213.488 -7.22748 138.521C122.741 63.555 274.165 43.6606 419.155 82.5106C564.145 121.361 685.334 214.301 760.407 344.209C835.48 474.116 855.448 625.457 816.634 770.315C777.819 915.173 684.871 1036.24 554.891 1111.21ZM416.34 93.0169C558.523 131.115 677.367 222.257 750.994 349.644C824.618 477.042 844.193 625.436 806.131 767.487C768.068 909.539 676.903 1028.27 549.459 1101.78C421.996 1175.31 273.507 1194.81 131.323 1156.71C-10.8601 1118.61 -129.704 1027.47 -203.331 900.086C-276.955 772.688 -296.53 624.293 -258.468 482.242C-220.405 340.19 -129.252 221.453 -1.79582 147.947C125.664 74.4289 274.153 54.9309 416.337 93.0288L416.34 93.0169ZM132.583 1152.01C273.507 1189.77 420.693 1170.44 547.012 1097.58C673.334 1024.71 763.686 907.041 801.414 766.236C839.142 625.432 819.732 478.342 746.767 352.084C673.804 225.815 556.001 135.491 415.077 97.7304C274.153 59.9699 126.967 79.303 0.648146 152.162C-125.674 225.034 -216.026 342.701 -253.754 483.505C-291.482 624.309 -272.072 771.4 -199.107 897.657C-126.144 1023.93 -8.34102 1114.25 132.583 1152.01ZM737.341 357.516C665.824 233.767 550.383 145.233 412.265 108.225C274.159 71.2194 129.905 90.1681 6.09489 161.579C-117.715 232.989 -206.26 348.326 -243.236 486.323C-280.212 624.321 -261.199 768.477 -189.681 892.226C-118.164 1015.97 -2.72261 1104.51 135.395 1141.52C273.513 1178.53 417.755 1159.57 541.565 1088.16C665.363 1016.75 753.919 901.416 790.896 763.418C827.872 625.42 808.858 481.264 737.341 357.516ZM539.136 1083.94C416.452 1154.7 273.516 1173.47 136.658 1136.8C-0.200349 1100.13 -114.598 1012.4 -185.466 889.781C-256.318 767.15 -275.173 624.321 -238.531 487.571C-201.889 350.821 -114.154 236.54 8.53011 165.779C131.215 95.0182 274.15 76.243 411.008 112.914C547.867 149.585 662.265 237.313 733.132 359.936C803.984 482.568 822.84 625.396 786.197 762.146C749.555 898.897 661.821 1013.18 539.136 1083.94ZM408.19 123.432C684.917 197.581 849.776 482.844 775.688 759.343C701.6 1035.84 416.197 1200.46 139.47 1126.31C-137.257 1052.16 -302.116 766.897 -228.028 490.398C-153.94 213.899 131.463 49.2837 408.19 123.432ZM140.73 1121.61C414.854 1195.06 697.581 1031.99 770.974 758.08C844.368 484.171 681.055 201.585 406.93 128.134C132.806 54.6824 -149.921 217.752 -223.314 491.661C-296.708 765.57 -133.391 1048.14 140.733 1121.6L140.73 1121.61ZM760.468 755.265C832.306 487.161 672.447 210.54 404.115 138.64C135.783 66.741 -140.97 226.373 -212.808 494.476C-284.646 762.58 -124.787 1039.2 143.545 1111.1C411.876 1183 688.63 1023.37 760.468 755.265ZM755.755 754.002C684.611 1019.52 410.546 1177.6 144.805 1106.4L144.808 1106.39C-120.921 1035.19 -279.239 761.252 -208.095 495.739C-136.951 230.226 137.126 72.1398 402.855 143.342C668.584 214.544 826.899 488.489 755.755 754.002ZM400.043 153.836C659.979 223.486 814.843 491.455 745.251 751.175C675.66 1010.9 407.568 1165.55 147.62 1095.89C-112.328 1026.24 -267.18 758.275 -197.588 498.554C-127.997 238.834 140.104 84.1984 400.04 153.848L400.043 153.836ZM148.883 1091.18C406.228 1160.14 671.64 1007.04 740.538 749.912C809.436 492.782 656.129 227.493 398.784 158.538C141.438 89.582 -123.974 242.676 -192.872 499.805C-261.769 756.935 -108.451 1022.23 148.883 1091.18ZM730.032 747.097C797.377 495.76 647.521 236.447 395.968 169.044L395.965 169.056C144.413 101.653 -115.023 251.296 -182.369 502.633C-249.714 753.969 -99.8579 1013.28 151.695 1080.69C403.247 1148.09 662.686 998.433 730.032 747.097ZM725.318 745.834C658.667 994.58 401.908 1142.68 152.958 1075.97C-95.9923 1009.27 -244.303 752.63 -177.652 503.884C-111.001 255.137 145.759 107.039 394.709 173.745C643.659 240.451 791.97 497.088 725.318 745.834ZM391.894 184.252C635.051 249.406 779.911 500.065 714.812 743.019C649.713 985.972 398.927 1130.63 155.77 1065.48C-87.3874 1000.32 -232.248 749.664 -167.149 506.711C-102.05 263.757 148.733 119.11 391.89 184.264L391.894 184.252ZM157.033 1060.76C397.587 1125.22 645.693 982.118 710.098 741.756C774.503 501.393 631.188 253.41 390.634 188.953C150.079 124.497 -98.0271 267.599 -162.432 507.962C-226.837 748.324 -83.5219 996.308 157.033 1060.76ZM699.592 738.94C762.445 504.371 622.58 262.364 387.819 199.46L387.815 199.472C153.054 136.567 -89.0762 276.219 -151.929 510.789C-214.782 745.359 -74.9171 987.365 159.845 1050.27C394.606 1113.17 636.739 973.51 699.592 738.94ZM694.879 737.677C632.72 969.657 393.279 1107.77 161.108 1045.56L161.104 1045.57C-71.0547 983.361 -209.371 744.019 -147.212 512.04C-85.0537 280.061 154.4 141.954 386.559 204.161C618.718 266.368 757.037 505.698 694.879 737.677ZM383.744 214.667C610.11 275.322 744.975 508.688 684.372 734.862C623.769 961.037 390.298 1095.72 163.92 1035.06C-62.4587 974.404 -197.312 741.041 -136.709 514.867C-76.106 288.693 157.362 154.022 383.74 214.679L383.744 214.667ZM165.182 1030.35C388.958 1090.31 619.75 957.183 679.659 733.599C739.568 510.016 606.259 279.329 382.484 219.369C158.708 159.408 -72.0834 292.534 -131.992 516.118C-191.902 739.702 -58.5963 970.4 165.179 1030.36L165.182 1030.35ZM669.152 730.784C727.509 512.993 597.651 288.283 379.669 229.875L379.666 229.887C161.683 171.479 -63.1325 301.154 -121.489 518.945C-179.846 736.736 -49.9883 961.446 167.994 1019.85C385.977 1078.26 610.796 948.575 669.152 730.784ZM664.436 729.533C606.773 944.733 384.634 1072.86 169.254 1015.15C-46.1259 957.442 -174.439 735.408 -116.776 520.208C-59.1133 305.008 163.026 176.878 378.406 234.589C593.786 292.3 722.098 514.333 664.436 729.533ZM375.594 245.083C585.181 301.242 710.043 517.299 653.929 726.718C597.816 936.137 381.657 1060.8 172.069 1004.65C-37.5178 948.487 -162.38 732.431 -106.266 523.011C-50.1525 313.592 166.01 188.912 375.597 245.071L375.594 245.083ZM173.329 999.945C380.314 1055.41 593.8 932.272 649.216 725.455C704.632 518.638 581.315 305.258 374.331 249.797C167.346 194.335 -46.1397 317.47 -101.556 524.286C-156.972 731.103 -33.6555 944.483 173.329 999.945ZM638.71 722.64C692.577 521.604 572.711 314.2 371.519 260.291L371.522 260.279C170.33 206.37 -37.179 326.054 -91.0464 527.089C-144.914 728.125 -25.0593 935.526 176.144 989.438C377.348 1043.35 584.842 923.676 638.71 722.64ZM633.996 721.377C580.826 919.81 376.005 1037.95 177.404 984.737C-21.185 931.525 -139.506 726.798 -86.3362 528.364C-33.1662 329.931 171.667 211.793 370.256 265.004C568.845 318.216 687.166 522.944 633.996 721.377ZM367.444 275.499C560.252 327.161 675.108 525.921 623.49 718.562C571.872 911.202 373.027 1025.89 180.219 974.231C-12.589 922.568 -127.444 723.808 -75.8267 531.168C-24.2088 338.527 174.639 223.824 367.447 275.487L367.444 275.499ZM181.479 969.529C371.685 1020.49 567.856 907.336 618.776 717.299C669.697 527.261 556.387 331.178 366.181 280.212C175.975 229.247 -20.196 342.405 -71.1165 532.443C-122.037 722.48 -8.72665 918.564 181.479 969.529ZM608.27 714.484C657.641 530.227 547.782 340.12 363.369 290.706L363.372 290.695C178.96 241.281 -11.2354 350.989 -60.6069 535.246C-109.978 719.503 -0.118581 909.61 184.294 959.023C368.707 1008.44 558.898 898.74 608.27 714.484ZM603.556 713.221C554.882 894.875 367.364 1003.04 185.554 954.321C3.74376 905.605 -104.571 718.175 -55.8966 536.521C-7.22252 354.866 180.296 246.704 362.106 295.42C543.916 344.136 652.231 531.566 603.556 713.221ZM359.294 305.914C535.311 353.078 640.175 534.532 593.05 710.405C545.925 886.279 364.386 990.979 188.369 943.815C12.3518 896.651 -92.5122 715.197 -45.387 539.324C1.73811 363.45 183.28 258.739 359.297 305.902L359.294 305.914ZM189.629 939.114C363.055 985.583 541.909 882.413 588.34 709.131C634.771 535.848 531.449 357.082 358.034 310.616C184.62 264.15 5.75417 367.316 -40.6736 540.587C-87.1014 713.858 16.2142 892.647 189.629 939.114ZM577.83 706.327C622.709 538.837 522.841 366.036 355.219 321.122C187.597 276.208 14.7083 375.924 -30.1705 543.414C-75.0493 710.904 24.819 883.705 192.441 928.619C360.063 973.533 532.952 873.817 577.83 706.327ZM573.117 705.064C528.932 869.964 358.732 968.138 193.701 923.918C28.6693 879.698 -69.6416 709.576 -25.457 544.677C18.7276 379.778 188.928 281.604 353.959 325.824C518.991 370.044 617.301 540.165 573.117 705.064ZM351.144 336.33C510.383 378.998 605.243 543.143 562.611 702.249C519.978 861.356 355.754 956.079 196.516 913.411C37.2774 870.744 -57.583 706.599 -14.9506 547.492C27.6819 388.386 191.906 293.662 351.144 336.33ZM197.775 908.71C354.411 950.68 515.959 857.502 557.897 700.986C599.835 544.47 506.52 383.002 349.884 341.031C193.249 299.061 31.7012 392.239 -10.2371 548.755C-52.1754 705.271 41.1398 866.739 197.775 908.71ZM547.394 698.159C587.777 547.448 497.915 391.944 347.073 351.526C196.23 311.108 40.6553 400.847 0.272427 551.558C-40.1105 702.269 49.751 857.773 200.594 898.192C351.437 938.61 507.011 848.87 547.394 698.159ZM542.68 696.896C502.992 845.016 350.094 933.211 201.854 893.49C53.6134 853.769 -34.7028 700.941 4.98591 552.821C44.6746 404.701 197.573 316.506 345.813 356.227C494.053 395.948 582.369 548.776 542.68 696.896ZM342.998 366.734C485.445 404.902 570.311 551.754 532.174 694.081C494.038 836.408 347.116 921.152 204.669 882.984C62.2214 844.815 -22.6443 697.964 15.4922 555.636C53.6287 413.309 200.55 328.565 342.998 366.734ZM205.928 878.282C345.785 915.757 490.018 832.555 527.461 692.818C564.903 553.081 481.583 408.906 341.738 371.435C201.893 333.964 57.648 417.163 20.2057 556.899C-17.2367 696.636 66.0837 840.811 205.928 878.282ZM516.954 690.003C552.844 556.059 472.974 417.86 338.923 381.941C204.871 346.022 66.6022 425.771 30.712 559.715C-5.17818 693.658 74.6918 831.857 208.744 867.776C342.795 903.695 481.064 823.947 516.954 690.003ZM512.241 688.74C477.045 820.093 341.465 898.299 210.003 863.074C78.5422 827.849 0.229459 692.331 35.4255 560.978C70.6215 429.624 206.202 351.418 337.663 386.643C469.124 421.868 547.437 557.387 512.241 688.74ZM334.848 397.149C460.516 430.822 535.378 560.364 501.735 685.925C468.091 811.485 338.487 886.241 212.819 852.568C87.1503 818.895 12.2881 689.353 45.9319 563.793C79.5757 438.232 209.179 363.476 334.848 397.149ZM214.078 847.867C337.144 880.842 464.071 807.631 497.021 684.662C529.971 561.692 456.654 434.826 333.588 401.851C210.522 368.875 83.595 442.086 50.6453 565.056C17.6956 688.025 91.0126 814.891 214.078 847.867ZM486.515 681.846C517.912 564.67 448.046 443.78 330.773 412.357C213.5 380.934 92.5491 450.694 61.1516 567.871C29.7542 685.048 99.6207 805.937 216.894 837.36C334.166 868.783 455.117 799.023 486.515 681.846ZM481.801 680.584C451.098 795.17 332.836 863.388 218.153 832.659C103.471 801.93 35.1498 683.717 65.8531 569.131C96.5564 454.544 214.843 386.333 329.513 417.059C444.183 447.784 512.505 565.997 481.801 680.584ZM326.698 427.565C435.575 456.738 500.443 568.987 471.295 677.768C442.147 786.55 329.843 851.338 220.965 822.164C112.088 792.991 47.2203 680.742 76.3715 571.949C105.523 463.155 217.82 398.391 326.698 427.565ZM222.225 817.463C328.512 845.942 438.124 782.708 466.578 676.517C495.032 570.327 431.71 460.755 325.435 432.278C219.16 403.802 109.523 467.03 81.0697 573.221C52.6159 679.411 115.938 788.983 222.225 817.463ZM456.072 673.702C482.977 573.292 423.117 469.7 322.623 442.773C222.141 415.849 118.493 475.629 91.588 576.039C64.6833 676.449 124.555 780.045 225.037 806.969C325.519 833.893 429.167 774.112 456.072 673.702ZM451.37 672.442C425.163 770.25 324.191 828.485 226.3 802.255C128.397 776.022 70.0821 675.106 96.2895 577.299C122.497 479.491 223.457 421.253 321.36 447.486C419.263 473.719 477.578 574.635 451.37 672.442ZM318.548 457.98C410.646 482.658 465.51 577.598 440.852 669.624C416.194 761.651 321.21 816.439 229.112 791.761C137.013 767.083 82.1494 672.144 106.808 580.117C131.466 488.091 226.45 433.303 318.548 457.98ZM230.375 787.047C319.871 811.028 412.19 757.788 436.151 668.364C460.112 578.94 406.793 486.677 317.285 462.694C227.777 438.71 135.47 491.953 111.509 581.377C87.5483 670.801 140.867 763.064 230.375 787.047ZM425.632 665.546C448.044 581.903 398.176 495.616 314.473 473.188C230.77 450.76 144.44 500.552 122.028 584.195C99.6155 667.838 149.484 754.125 233.187 776.553C316.89 798.981 403.22 749.189 425.632 665.546ZM420.931 664.286C399.216 745.327 315.562 793.574 234.45 771.84C153.337 750.106 105.014 666.495 126.729 585.455C148.444 504.415 232.098 456.168 313.21 477.902C394.323 499.636 442.645 583.246 420.931 664.286ZM310.398 488.396C385.718 508.578 430.575 586.22 410.412 661.468C390.25 736.715 312.569 781.524 237.262 761.345C161.954 741.167 117.085 663.521 137.247 588.273C157.41 513.026 235.091 468.218 310.398 488.396ZM238.525 756.632C311.242 776.116 386.243 732.865 405.711 660.208C425.179 587.551 381.852 512.594 309.135 493.11C236.418 473.625 161.417 516.876 141.949 589.533C122.481 662.19 165.808 737.147 238.525 756.632ZM395.193 657.39C413.109 590.526 373.247 521.536 306.323 503.604C239.411 485.675 170.383 525.488 152.467 592.352C134.551 659.216 174.413 728.205 241.337 746.137C308.261 764.07 377.276 724.254 395.193 657.39ZM390.491 656.13C373.272 720.391 306.921 758.659 242.6 741.424C178.266 724.186 139.95 657.873 157.169 593.611C174.388 529.35 240.727 491.079 305.06 508.317C369.394 525.555 407.71 591.869 390.491 656.13ZM302.248 518.812C360.777 534.494 395.643 594.831 379.973 653.312C364.303 711.792 303.94 746.612 245.412 730.93C186.883 715.247 152.017 654.91 167.687 596.43C183.357 537.949 243.72 503.129 302.248 518.812ZM246.671 726.228C302.609 741.217 360.296 707.942 375.271 652.052C390.247 596.162 356.927 538.502 300.989 523.513C245.051 508.525 187.364 541.8 172.389 597.69C157.413 653.579 190.733 711.24 246.671 726.228ZM364.753 649.233C378.176 599.136 348.307 547.453 298.173 534.02C248.04 520.586 196.33 550.411 182.907 600.508C169.483 650.605 199.353 702.289 249.486 715.722C299.62 729.155 351.33 699.33 364.753 649.233ZM360.052 647.974C347.322 695.48 298.289 723.759 250.746 711.02C203.204 698.281 174.879 649.274 187.608 601.768C200.338 554.261 249.371 525.982 296.914 538.721C344.456 551.46 372.781 600.467 360.052 647.974ZM294.102 549.215C335.851 560.402 360.714 603.43 349.536 645.143C338.359 686.857 295.302 711.685 253.565 700.502C211.827 689.318 186.953 646.288 198.13 604.574C209.307 562.86 252.364 538.032 294.102 549.215ZM254.824 695.8C293.971 706.29 334.352 683.006 344.835 643.884C355.318 604.761 331.989 564.406 292.842 553.917C253.695 543.427 213.314 566.711 202.831 605.834C192.348 644.957 215.677 685.311 254.824 695.8ZM334.317 641.065C343.244 607.747 323.381 573.36 290.027 564.423C256.673 555.486 222.277 575.334 213.35 608.652C204.422 641.97 224.285 676.357 257.64 685.294C290.994 694.231 325.389 674.383 334.317 641.065ZM329.615 639.805C321.382 670.533 289.651 688.833 258.899 680.593C228.136 672.35 209.818 640.639 218.051 609.912C226.285 579.184 258.004 560.882 288.767 569.125C319.531 577.368 337.849 609.078 329.615 639.805Z" fill="url(#paint0_linear_2_11913)"/>
<path fill-rule="evenodd" clip-rule="evenodd" d="M1557.37 164.858C1617.98 -61.316 1483.11 -294.682 1256.74 -355.337L1256.74 -355.324C1030.36 -415.982 796.894 -281.311 736.291 -55.137C675.688 171.037 810.541 404.4 1036.92 465.058C1263.3 525.716 1496.77 391.033 1557.37 164.858ZM1552.66 163.595C1492.75 387.179 1261.96 520.305 1038.18 460.344L1038.18 460.356C814.404 400.396 681.098 169.698 741.007 -53.8861C800.917 -277.47 1031.71 -410.596 1255.48 -350.635C1479.26 -290.675 1612.57 -59.9883 1552.66 163.595ZM1542.15 160.78C1600.51 -57.0107 1470.65 -281.72 1252.67 -340.129L1252.67 -340.117C1034.68 -398.525 809.868 -268.85 751.511 -51.0589C693.154 166.732 823.012 391.442 1040.99 449.85C1258.98 508.258 1483.8 378.571 1542.15 160.78ZM1537.44 159.529C1479.77 374.729 1257.63 502.86 1042.25 445.149C826.874 387.438 698.561 165.404 756.224 -49.796C813.887 -264.996 1036.03 -393.126 1251.41 -335.415C1466.79 -277.704 1595.1 -55.671 1537.44 159.529ZM1248.59 -324.921C1458.18 -268.762 1583.04 -52.7052 1526.93 156.714C1470.82 366.133 1254.66 490.801 1045.07 434.642C835.482 378.483 710.62 162.427 766.734 -46.9927C822.847 -256.412 1039.01 -381.092 1248.6 -324.933L1248.59 -324.921ZM1046.33 429.941C1253.31 485.402 1466.8 362.268 1522.22 155.451C1577.63 -51.3656 1454.32 -264.746 1247.33 -320.207C1040.35 -375.669 826.86 -252.534 771.444 -45.7178C716.027 161.099 839.344 374.479 1046.33 429.941ZM1511.71 152.636C1565.58 -48.3999 1445.71 -255.804 1244.52 -309.713L1244.52 -309.725C1043.33 -363.634 835.821 -243.95 781.954 -42.9146C728.086 158.121 847.941 365.522 1049.14 419.434C1250.35 473.347 1457.84 353.672 1511.71 152.636ZM1507 151.373C1453.83 349.806 1249.01 467.948 1050.4 414.733C851.815 361.521 733.494 156.794 786.664 -41.6396C839.834 -240.073 1044.67 -358.211 1243.26 -305C1441.84 -251.788 1560.17 -47.0603 1507 151.373ZM1240.44 -294.505C1433.25 -242.843 1548.11 -44.0826 1496.49 148.558C1444.87 341.198 1246.03 455.889 1053.22 404.227C860.411 352.564 745.555 153.804 797.173 -38.8365C848.791 -231.477 1047.64 -346.18 1240.45 -294.517L1240.44 -294.505ZM1054.48 399.525C1244.68 450.491 1440.86 337.332 1491.78 147.295C1542.7 -42.743 1429.39 -238.826 1239.18 -289.792C1048.98 -340.757 852.804 -227.599 801.883 -37.5615C750.963 152.476 864.273 348.56 1054.48 399.525ZM1481.27 144.48C1530.64 -39.7771 1420.78 -229.884 1236.37 -279.297L1236.37 -279.309C1051.96 -328.723 861.765 -219.015 812.393 -34.7583C763.022 149.499 872.881 339.606 1057.29 389.019C1241.71 438.432 1431.9 328.736 1481.27 144.48ZM1476.56 143.217C1427.88 324.871 1240.36 433.033 1058.55 384.317C876.744 335.601 768.429 148.171 817.103 -33.4833C865.777 -215.138 1053.3 -323.3 1235.11 -274.584C1416.92 -225.868 1525.23 -38.4375 1476.56 143.217ZM1232.29 -264.09C1408.31 -216.926 1513.18 -35.4718 1466.05 140.402C1418.92 316.275 1237.39 420.975 1061.37 373.811C885.352 326.647 780.488 145.193 827.613 -30.6802C874.738 -206.553 1056.28 -311.265 1232.3 -264.102L1232.29 -264.09ZM1062.63 369.11C1236.06 415.579 1414.91 312.409 1461.34 139.126C1507.77 -34.1562 1404.45 -212.922 1231.03 -259.388C1057.62 -305.854 878.754 -202.688 832.326 -29.4172C785.899 143.854 889.214 322.643 1062.63 369.11ZM1450.83 136.323C1495.71 -31.1665 1395.84 -203.968 1228.22 -248.882C1060.6 -293.796 887.708 -194.08 842.829 -26.5901C797.951 140.9 897.819 313.701 1065.44 358.615C1233.06 403.529 1405.95 303.813 1450.83 136.323ZM1446.12 135.06C1401.93 299.96 1231.73 398.134 1066.7 353.914C901.669 309.694 803.358 139.572 847.543 -25.3271C891.728 -190.226 1061.93 -288.4 1226.96 -244.18C1391.99 -199.96 1490.3 -29.8389 1446.12 135.06ZM1224.14 -233.674C1383.38 -191.006 1478.24 -26.8611 1435.61 132.245C1392.98 291.352 1228.75 386.075 1069.52 343.407C910.277 300.74 815.417 136.595 858.049 -22.5119C900.682 -181.618 1064.91 -276.342 1224.14 -233.674ZM1070.78 338.706C1227.41 380.676 1388.96 287.498 1430.9 130.982C1472.84 -25.5335 1379.52 -187.002 1222.88 -228.973C1066.25 -270.943 904.701 -177.765 862.763 -21.2489C820.825 135.267 914.14 296.735 1070.78 338.706ZM1420.39 128.155C1460.78 -22.5558 1370.92 -178.06 1220.07 -218.478C1069.23 -258.896 913.655 -169.157 873.272 -18.4458C832.889 132.265 922.751 287.769 1073.59 328.188C1224.44 368.606 1380.01 278.866 1420.39 128.155ZM1415.68 126.892C1375.99 275.012 1223.09 363.207 1074.85 323.486C926.613 283.765 838.297 130.937 877.986 -17.1828C917.675 -165.303 1070.57 -253.498 1218.81 -213.777C1367.05 -174.056 1455.37 -21.2281 1415.68 126.892ZM1216 -203.27C1358.44 -165.102 1443.31 -18.2505 1405.17 124.077C1367.04 266.404 1220.12 351.148 1077.67 312.98C935.221 274.811 850.356 127.96 888.492 -14.3676C926.629 -156.695 1073.55 -241.439 1216 -203.27ZM1078.93 308.278C1218.79 345.753 1363.02 262.551 1400.46 122.814C1437.9 -16.9228 1354.58 -161.098 1214.74 -198.569C1074.89 -236.04 930.648 -152.841 893.206 -13.1047C855.763 126.632 939.084 270.807 1078.93 308.278ZM1389.95 119.999C1425.84 -13.9451 1345.97 -152.143 1211.92 -188.063C1077.87 -223.982 939.602 -144.233 903.712 -10.2895C867.822 123.654 947.692 261.853 1081.74 297.772C1215.8 333.691 1354.06 253.943 1389.95 119.999ZM1385.24 118.736C1350.04 250.089 1214.46 328.295 1083 293.07C951.542 257.845 873.229 122.327 908.425 -9.02653C943.621 -140.38 1079.2 -218.586 1210.66 -183.361C1342.12 -148.136 1420.44 -12.6174 1385.24 118.736ZM1207.85 -172.855C1333.52 -139.182 1408.38 -9.6398 1374.73 115.921C1341.09 241.481 1211.49 316.237 1085.82 282.564C960.15 248.891 885.288 119.349 918.932 -6.21135C952.576 -131.772 1082.18 -206.528 1207.85 -172.855ZM1087.08 277.863C1210.14 310.838 1337.07 237.628 1370.02 114.658C1402.97 -8.31215 1329.65 -135.178 1206.59 -168.153C1083.52 -201.129 956.595 -127.918 923.645 -4.94839C890.696 118.021 964.013 244.887 1087.08 277.863ZM1359.51 111.843C1390.91 -5.33442 1321.05 -126.224 1203.77 -157.647C1086.5 -189.07 965.549 -119.31 934.152 -2.13323C902.754 115.044 972.621 235.933 1089.89 267.356C1207.17 298.779 1328.12 229.019 1359.51 111.843ZM1354.8 110.58C1324.1 225.166 1205.84 293.384 1091.15 262.655C976.471 231.926 908.15 113.713 938.853 -0.873473C969.556 -115.46 1087.84 -183.671 1202.51 -152.945C1317.18 -122.22 1385.5 -4.00677 1354.8 110.58ZM1199.7 -142.439C1308.58 -113.265 1373.44 -1.01707 1344.29 107.764C1315.15 216.546 1202.84 281.334 1093.97 252.16C985.088 222.987 920.22 110.738 949.371 1.94491C978.523 -106.848 1090.82 -171.613 1199.7 -142.439ZM1095.22 247.459C1201.51 275.938 1311.12 212.704 1339.58 106.513C1368.03 0.322608 1304.71 -109.249 1198.43 -137.726C1092.16 -166.202 982.523 -102.974 954.07 3.21666C925.616 109.408 988.938 218.98 1095.22 247.459ZM1329.07 103.698C1355.98 3.28831 1296.12 -100.304 1195.62 -127.231C1095.14 -154.155 991.493 -94.3749 964.588 6.03508C937.683 106.445 997.555 210.041 1098.04 236.965C1198.52 263.889 1302.17 204.108 1329.07 103.698ZM1324.37 102.439C1298.16 200.246 1197.19 258.481 1099.3 232.251C1001.4 206.018 943.082 105.102 969.289 7.29483C995.497 -90.5125 1096.46 -148.751 1194.36 -122.518C1292.26 -96.2847 1350.58 4.63115 1324.37 102.439ZM1191.55 -112.023C1283.65 -87.3458 1338.51 7.59363 1313.85 99.6201C1289.19 191.647 1194.21 246.435 1102.11 221.757C1010.01 197.079 955.149 102.14 979.808 10.1132C1004.47 -81.9133 1099.45 -136.701 1191.55 -112.023ZM1103.37 217.043C1192.87 241.024 1285.19 187.784 1309.15 98.3603C1333.11 8.93653 1279.79 -83.3265 1190.29 -107.31C1100.78 -131.294 1008.47 -78.0509 984.509 11.373C960.548 100.797 1013.87 193.06 1103.37 217.043ZM1298.63 95.5419C1321.04 11.899 1271.18 -74.3876 1187.47 -96.8157C1103.77 -119.244 1017.44 -69.4516 995.028 14.1913C972.615 97.8343 1022.48 184.121 1106.19 206.549C1189.89 228.977 1276.22 179.185 1298.63 95.5419ZM1293.93 94.2822C1272.22 175.323 1188.56 223.57 1107.45 201.836C1026.34 180.102 978.014 96.4915 999.729 15.4511C1021.44 -65.5893 1105.1 -113.836 1186.21 -92.1023C1267.32 -70.3683 1315.65 13.2418 1293.93 94.2822ZM1183.4 -81.6079C1258.72 -61.4261 1303.57 16.2163 1283.41 91.4638C1263.25 166.711 1185.57 211.52 1110.26 191.341C1034.95 171.163 990.085 93.517 1010.25 18.2695C1030.41 -56.9781 1108.09 -101.786 1183.4 -81.6079ZM1111.52 186.628C1184.24 206.112 1259.24 162.861 1278.71 90.2041C1298.18 17.5472 1254.85 -57.41 1182.14 -76.8944C1109.42 -96.3788 1034.42 -53.1277 1014.95 19.5292C995.481 92.1862 1038.81 167.143 1111.52 186.628ZM1268.19 87.3857C1286.11 20.5217 1246.25 -48.4679 1179.32 -66.4001C1112.41 -84.3291 1043.38 -44.5164 1025.47 22.3476C1007.55 89.2116 1047.41 158.201 1114.34 176.133C1181.26 194.066 1250.28 154.25 1268.19 87.3857ZM1263.49 86.126C1246.27 150.387 1179.92 188.655 1115.6 171.42C1051.27 154.182 1012.95 87.8688 1030.17 23.6074C1047.39 -40.654 1113.73 -78.9247 1178.06 -61.6866C1242.39 -44.4485 1280.71 21.8645 1263.49 86.126ZM1175.25 -51.1923C1233.78 -35.5096 1268.64 24.827 1252.97 83.3076C1237.3 141.788 1176.94 176.608 1118.41 160.926C1059.88 145.243 1025.02 84.9062 1040.69 26.4257C1056.36 -32.0548 1116.72 -66.8749 1175.25 -51.1923ZM1119.67 156.224C1175.61 171.213 1233.3 137.938 1248.27 82.0478C1263.25 26.1579 1229.93 -31.5022 1173.99 -46.4907C1118.05 -61.4793 1060.36 -28.2044 1045.39 27.6855C1030.41 83.5754 1063.73 141.236 1119.67 156.224ZM1237.75 79.2294C1251.18 29.1324 1221.31 -22.5514 1171.17 -35.9845C1121.04 -49.4176 1069.33 -19.5931 1055.91 30.5039C1042.48 80.6009 1072.35 132.285 1122.49 145.718C1172.62 159.151 1224.33 129.326 1237.75 79.2294ZM1233.05 77.9697C1220.32 125.476 1171.29 153.755 1123.75 141.016C1076.2 128.277 1047.88 79.2701 1060.61 31.7637C1073.34 -15.7428 1122.37 -44.0219 1169.91 -31.283C1217.46 -18.544 1245.78 30.4632 1233.05 77.9697ZM1167.1 -20.7886C1208.85 -9.60186 1233.71 33.4257 1222.54 75.1393C1211.36 116.853 1168.3 141.681 1126.56 130.498C1084.83 119.314 1059.95 76.2836 1071.13 34.57C1082.31 -7.14356 1125.36 -31.9722 1167.1 -20.7886ZM1127.82 125.796C1166.97 136.286 1207.35 113.002 1217.83 73.8795C1228.32 34.7566 1204.99 -5.59774 1165.84 -16.0871C1126.7 -26.5765 1086.31 -3.29317 1075.83 35.8298C1065.35 74.9527 1088.68 115.307 1127.82 125.796ZM1207.32 71.0611C1216.24 37.7431 1196.38 3.35639 1163.03 -5.58081C1129.67 -14.518 1095.28 5.33007 1086.35 38.6481C1077.42 71.9662 1097.29 106.353 1130.64 115.29C1163.99 124.227 1198.39 104.379 1207.32 71.0611ZM1202.62 69.8014C1194.38 100.529 1162.65 118.829 1131.9 110.589C1101.14 102.346 1082.82 70.6353 1091.05 39.9079C1099.28 9.18044 1131 -9.12238 1161.77 -0.879347C1192.53 7.3637 1210.85 39.0739 1202.62 69.8014Z" fill="url(#paint1_linear_2_11913)"/>
</g>
<defs>
<linearGradient id="paint0_linear_2_11913" x1="597.326" y1="268.865" x2="777.876" y2="949.474" gradientUnits="userSpaceOnUse">
<stop stop-color="#EAC400" stop-opacity="0"/>
<stop offset="1" stop-color="#FFEFB8"/>
</linearGradient>
<linearGradient id="paint1_linear_2_11913" x1="810.821" y1="326.102" x2="932.654" y2="785.372" gradientUnits="userSpaceOnUse">
<stop stop-color="#EAC400" stop-opacity="0"/>
<stop offset="1" stop-color="#FFEFB8"/>
</linearGradient>
</defs>
</svg>
