<svg width="904" height="757" viewBox="0 0 904 757" fill="none" xmlns="http://www.w3.org/2000/svg">
<path opacity="0.22" fill-rule="evenodd" clip-rule="evenodd" d="M436.15 -480.984C598.663 -437.439 734.494 -333.273 818.64 -187.669C902.786 -42.0646 925.172 127.548 881.662 289.928C838.153 452.309 733.962 587.992 588.288 672.016C442.625 756.044 272.897 778.335 110.385 734.79C-52.128 691.245 -187.959 587.079 -272.105 441.475C-356.251 295.87 -378.625 126.261 -335.119 -36.1074C-291.612 -198.476 -187.431 -334.174 -41.7563 -418.199C103.918 -502.223 273.646 -524.514 436.147 -480.972L436.15 -480.984ZM111.648 730.076C272.901 773.284 441.31 751.166 585.847 667.789C730.405 584.43 833.78 449.775 876.949 288.665C920.118 127.556 897.908 -40.7492 814.424 -185.225C730.928 -329.704 596.14 -433.063 434.899 -476.267C273.658 -519.472 105.237 -497.357 -39.3002 -413.98C-183.849 -330.605 -287.221 -195.962 -330.393 -34.8412C-373.566 126.28 -351.353 294.573 -267.869 439.049C-184.381 583.513 -49.5969 686.884 111.644 730.088L111.648 730.076ZM432.075 -465.776C590.522 -423.321 722.964 -321.76 804.999 -179.793C887.038 -37.8389 908.863 127.535 866.443 285.85C824.022 444.165 722.437 576.459 580.412 658.375C438.384 740.304 272.906 762.038 114.46 719.582C-43.9872 677.126 -176.429 575.566 -258.464 433.599C-340.499 291.633 -362.328 126.27 -319.908 -32.0445C-277.487 -190.359 -175.914 -322.656 -33.8742 -404.582C108.154 -486.511 273.632 -508.244 432.079 -465.788L432.075 -465.776ZM115.719 714.88C272.907 756.999 437.066 735.439 577.968 654.16C718.883 572.884 819.649 441.631 861.729 284.587C903.809 127.544 882.16 -36.5234 800.771 -177.353C719.383 -318.182 588 -418.945 430.812 -461.063C273.625 -503.181 109.466 -481.621 -31.4367 -400.342C-172.336 -319.075 -273.115 -187.825 -315.197 -30.7695C-357.28 126.286 -335.629 290.341 -254.24 431.17C-172.851 571.999 -41.4561 672.765 115.719 714.88ZM791.361 -171.93C711.421 -310.25 582.381 -409.202 428 -450.568L427.997 -450.556C273.616 -491.923 112.388 -470.747 -26.0019 -390.929C-164.392 -311.11 -263.36 -182.203 -304.691 -27.9543C-346.022 126.295 -324.767 287.416 -244.827 425.736C-164.886 564.056 -35.8464 663.008 118.534 704.374C272.915 745.74 434.143 724.565 572.534 644.747C710.912 564.925 809.892 436.021 851.223 281.772C892.554 127.523 871.302 -33.6098 791.361 -171.93ZM570.09 640.531C432.825 719.7 272.916 740.701 119.794 699.673C-33.3154 658.647 -161.308 560.489 -240.602 423.307C-319.881 286.115 -340.971 126.298 -299.978 -26.6913C-258.984 -179.681 -160.811 -307.541 -23.5578 -386.713C113.704 -465.87 273.616 -486.884 426.738 -445.855C579.859 -404.826 707.855 -306.681 787.134 -169.489C866.412 -32.2976 887.503 127.519 846.509 280.509C805.516 433.499 707.358 561.35 570.09 640.531ZM423.926 -435.361C574.241 -395.084 699.879 -298.74 777.709 -164.058C855.538 -29.3752 876.236 127.495 835.991 277.691C795.746 427.886 699.387 553.391 564.643 631.115C429.914 708.829 272.924 729.443 122.609 689.166C-27.7057 648.889 -153.344 552.546 -231.174 417.863C-309.003 283.181 -329.701 126.31 -289.456 -23.8849C-249.211 -174.08 -152.84 -299.582 -18.1078 -377.309C116.636 -455.032 273.626 -475.646 423.929 -435.373L423.926 -435.361ZM123.869 684.465C272.925 724.404 428.599 703.952 562.214 626.89C695.832 549.816 791.385 425.355 831.289 276.431C871.194 127.507 850.664 -28.0717 773.493 -161.613C696.31 -295.158 571.718 -390.708 422.663 -430.647C273.607 -470.586 117.933 -450.134 -15.6823 -373.072C-149.297 -296.011 -244.854 -171.537 -284.758 -22.6132C-324.662 126.311 -304.133 281.889 -226.961 415.431C-149.778 548.976 -25.1867 644.525 123.869 684.465ZM764.068 -156.182C688.345 -287.215 566.1 -380.965 419.851 -420.153L419.854 -420.165C273.604 -459.352 120.862 -439.284 -10.2324 -363.668C-141.327 -288.052 -235.093 -165.939 -274.248 -19.8101C-313.404 126.319 -293.256 278.955 -217.533 409.988C-141.81 541.02 -19.5651 634.771 126.684 673.958C272.934 713.146 425.673 693.09 556.767 617.474C687.873 541.861 781.628 419.745 820.783 273.616C859.938 127.486 839.79 -25.1494 764.068 -156.182ZM554.326 613.246C424.358 688.213 272.934 708.107 127.944 669.257L127.941 669.269C-17.0492 630.419 -138.239 537.478 -213.312 407.571C-288.385 277.664 -308.356 126.335 -269.538 -18.5351C-230.72 -163.405 -137.76 -284.474 -7.79163 -359.44C122.177 -434.407 273.601 -454.301 418.591 -415.451C563.581 -376.601 684.77 -283.66 759.843 -153.753C834.916 -23.8459 854.884 127.495 816.07 272.353C777.255 417.211 684.307 538.283 554.326 613.246ZM415.776 -404.945C557.959 -366.847 676.803 -275.704 750.43 -148.318C824.054 -20.9203 843.629 127.474 805.567 269.526C767.504 411.577 676.339 530.312 548.895 603.821C421.432 677.351 272.943 696.849 130.759 658.751C-11.4242 620.653 -130.268 529.51 -203.895 402.124C-277.519 274.726 -297.094 126.332 -259.032 -15.7199C-220.969 -157.771 -129.816 -276.509 -2.35997 -350.015C125.1 -423.533 273.589 -443.031 415.772 -404.933L415.776 -404.945ZM132.019 654.049C272.943 691.81 420.129 672.476 546.448 599.617C672.77 526.746 763.121 409.079 800.85 268.275C838.578 127.47 819.168 -19.62 746.202 -145.878C673.24 -272.147 555.437 -362.471 414.513 -400.231C273.589 -437.992 126.403 -418.659 0.0839984 -345.799C-126.238 -272.928 -216.59 -155.261 -254.318 -14.4569C-292.047 126.347 -272.637 273.438 -199.671 399.695C-126.708 525.965 -8.90516 616.289 132.019 654.049ZM736.777 -140.446C665.26 -264.194 549.818 -352.728 411.701 -389.737C273.595 -426.742 129.34 -407.794 5.53068 -336.383C-118.279 -264.972 -206.824 -149.636 -243.8 -11.6385C-280.776 126.359 -261.763 270.515 -190.246 394.264C-118.728 518.012 -3.28681 606.546 134.831 643.555C272.949 680.563 417.191 661.611 541.001 590.201C664.799 518.787 753.355 403.454 790.332 265.456C827.308 127.459 808.294 -16.6977 736.777 -140.446ZM538.572 585.976C415.888 656.737 272.952 675.512 136.094 638.841C-0.764497 602.17 -115.163 514.443 -186.03 391.82C-256.882 269.188 -275.737 126.36 -239.095 -10.3908C-202.453 -147.141 -114.719 -261.422 7.96597 -332.183C130.65 -402.943 273.586 -421.719 410.444 -385.048C547.302 -348.376 661.701 -260.649 732.568 -138.026C803.42 -15.3942 822.275 127.434 785.633 264.185C748.991 400.935 661.257 515.215 538.572 585.976ZM407.626 -374.529C684.353 -300.381 849.211 -15.1179 775.124 261.381C701.036 537.88 415.633 702.496 138.906 628.347C-137.821 554.198 -302.68 268.936 -228.592 -7.56365C-154.504 -284.063 130.899 -448.678 407.626 -374.529ZM140.166 623.645C414.29 697.097 697.017 534.027 770.41 260.118C843.804 -13.7903 680.491 -296.376 406.366 -369.828C132.242 -443.279 -150.485 -280.209 -223.879 -6.3007C-297.272 267.608 -133.956 550.182 140.169 623.633L140.166 623.645ZM759.904 257.303C831.742 -10.8005 671.882 -287.422 403.551 -359.321C135.219 -431.221 -141.534 -271.589 -213.372 -3.48548C-285.211 264.618 -125.351 541.24 142.981 613.139C411.312 685.038 688.066 525.407 759.904 257.303ZM755.19 256.04C684.046 521.553 409.981 679.643 144.24 608.438L144.244 608.426C-121.485 537.224 -279.803 263.291 -208.659 -2.22251C-137.515 -267.736 136.562 -425.822 402.291 -354.62C668.02 -283.418 826.334 -9.47289 755.19 256.04ZM399.479 -344.126C659.415 -274.476 814.279 -6.50718 744.687 253.213C675.095 512.933 407.004 667.584 147.056 597.931C-112.892 528.278 -267.744 260.313 -198.153 0.592659C-128.561 -259.128 139.54 -413.763 399.476 -344.114L399.479 -344.126ZM148.319 593.218C405.664 662.173 671.076 509.08 739.974 251.95C808.872 -5.17953 655.565 -270.469 398.219 -339.424C140.874 -408.38 -124.538 -255.286 -193.436 1.84367C-262.333 258.973 -109.015 524.266 148.319 593.218ZM729.467 249.135C796.813 -2.2018 646.957 -261.515 395.404 -328.918L395.401 -328.906C143.848 -396.309 -115.587 -246.666 -182.933 4.6708C-250.278 256.008 -100.422 515.32 151.131 582.723C402.683 650.127 662.122 500.472 729.467 249.135ZM724.754 247.872C658.103 496.618 401.344 644.716 152.394 578.01C-96.5565 511.304 -244.867 254.668 -178.216 5.92181C-111.565 -242.824 145.194 -390.922 394.144 -324.216C643.094 -257.51 791.405 -0.874145 724.754 247.872ZM391.329 -313.71C634.486 -248.556 779.347 2.10347 714.248 245.057C649.149 488.01 398.363 632.669 155.206 567.516C-87.9516 502.362 -232.812 251.702 -167.713 8.74891C-102.614 -234.204 148.169 -378.852 391.326 -313.698L391.329 -313.71ZM156.468 562.802C397.023 627.259 645.129 484.156 709.534 243.794C773.939 3.43112 630.624 -244.552 390.07 -309.008C149.515 -373.465 -98.5912 -230.363 -162.996 9.99989C-227.401 250.363 -84.086 498.346 156.468 562.802ZM699.028 240.979C761.881 6.40891 622.016 -235.598 387.254 -298.502L387.251 -298.49C152.489 -361.394 -89.6403 -221.743 -152.493 12.8271C-215.346 247.397 -75.4813 489.404 159.28 552.308C394.042 615.212 636.175 475.548 699.028 240.979ZM694.314 239.716C632.156 471.695 392.714 609.804 160.543 547.594L160.54 547.606C-71.6189 485.4 -209.935 246.057 -147.776 14.078C-85.6178 -217.901 153.836 -356.008 385.995 -293.801C618.154 -231.594 756.473 7.7365 694.314 239.716ZM383.179 -283.294C609.546 -222.64 744.411 10.7262 683.808 236.9C623.205 463.075 389.734 597.758 163.355 537.1C-63.0228 476.442 -197.876 243.079 -137.273 16.9052C-76.67 -209.269 156.798 -343.94 383.176 -283.282L383.179 -283.294ZM164.618 532.387C388.394 592.347 619.186 459.221 679.095 235.638C739.004 12.0539 605.695 -218.632 381.92 -278.593C158.144 -338.553 -72.6476 -205.428 -132.557 18.1561C-192.466 241.74 -59.1605 472.438 164.615 532.399L164.618 532.387ZM668.588 232.822C726.945 15.0315 597.087 -209.678 379.105 -268.087L379.101 -268.075C161.119 -326.483 -63.6965 -196.808 -122.053 20.9833C-180.41 238.774 -50.5524 463.484 167.43 521.892C385.413 580.301 610.231 450.613 668.588 232.822ZM663.872 231.571C606.209 446.772 384.07 574.902 168.69 517.191C-46.6901 459.48 -175.003 237.446 -117.34 22.2462C-59.6773 -192.954 162.461 -321.084 377.842 -263.373C593.222 -205.662 721.534 16.3712 663.872 231.571ZM375.03 -252.879C584.617 -196.72 709.479 19.3369 653.365 228.756C597.251 438.176 381.092 562.843 171.505 506.684C-38.082 450.526 -162.944 234.469 -106.83 25.0494C-50.7167 -184.37 165.446 -309.049 375.033 -252.891L375.03 -252.879ZM172.765 501.983C379.75 557.444 593.235 434.31 648.652 227.493C704.068 20.6766 580.751 -192.704 373.767 -248.165C166.782 -303.627 -46.7039 -180.492 -102.12 26.3244C-157.537 233.141 -34.2197 446.522 172.765 501.983ZM638.145 224.678C692.013 23.6423 572.146 -183.762 370.955 -237.671L370.958 -237.683C169.766 -291.592 -37.7432 -171.908 -91.6106 29.1276C-145.478 230.163 -25.6235 437.564 175.58 491.477C376.784 545.389 584.278 425.714 638.145 224.678ZM633.432 223.415C580.262 421.848 375.441 539.99 176.84 486.775C-21.7492 433.563 -140.07 228.836 -86.9004 30.4026C-33.7303 -168.031 171.103 -286.169 369.692 -232.957C568.281 -179.746 686.602 24.9819 633.432 223.415ZM366.88 -222.463C559.688 -170.8 674.543 27.9596 622.926 220.6C571.308 413.24 372.463 527.932 179.655 476.269C-13.1531 424.606 -128.009 225.846 -76.3908 33.2057C-24.773 -159.435 174.075 -274.138 366.883 -222.475L366.88 -222.463ZM180.915 471.567C371.12 522.533 567.292 409.375 618.212 219.337C669.133 29.2992 555.822 -166.784 365.617 -217.75C175.411 -268.715 -20.7601 -155.557 -71.6806 34.4807C-122.601 224.518 -9.29079 420.602 180.915 471.567ZM607.706 216.522C657.077 32.265 547.218 -157.842 362.805 -207.255L362.808 -207.267C178.395 -256.681 -11.7996 -146.973 -61.1711 37.2839C-110.543 221.541 -0.682788 411.648 183.73 461.061C368.143 510.474 558.334 400.779 607.706 216.522ZM602.992 215.259C554.318 396.913 366.8 505.075 184.99 456.36C3.17961 407.644 -105.135 220.213 -56.4608 38.5589C-7.78667 -143.095 179.732 -251.258 361.542 -202.542C543.352 -153.826 651.666 33.6047 602.992 215.259ZM358.73 -192.047C534.747 -144.884 639.611 36.5704 592.486 212.444C545.361 388.317 363.822 493.017 187.805 445.853C11.7876 398.689 -93.0764 217.235 -45.9512 41.362C1.1739 -134.511 182.716 -239.223 358.733 -192.059L358.73 -192.047ZM189.065 441.152C362.491 487.621 541.345 384.451 587.776 211.169C634.207 37.886 530.885 -140.88 357.47 -187.346C184.055 -233.812 5.19002 -130.646 -41.2377 42.625C-87.6655 215.896 15.65 394.685 189.065 441.152ZM577.266 208.366C622.145 40.8756 522.277 -131.926 354.655 -176.84C187.033 -221.754 14.1442 -122.038 -30.7346 45.4522C-75.6134 212.942 24.2548 385.743 191.877 430.657C359.498 475.571 532.387 375.855 577.266 208.366ZM572.553 207.103C528.368 372.002 358.168 470.176 193.136 425.956C28.1051 381.736 -70.2058 211.614 -26.0211 46.7151C18.1635 -118.184 188.364 -216.358 353.395 -172.138C518.426 -127.918 616.737 42.2033 572.553 207.103ZM350.58 -161.632C509.818 -118.964 604.679 45.1811 562.046 204.287C519.414 363.394 355.19 458.117 195.952 415.45C36.7133 372.782 -58.1472 208.637 -15.5148 49.5303C27.1177 -109.576 191.342 -204.3 350.58 -161.632ZM197.211 410.748C353.847 452.719 515.395 359.54 557.333 203.024C599.271 46.5087 505.956 -114.96 349.32 -156.93C192.685 -198.901 31.137 -105.722 -10.8013 50.7933C-52.7396 207.309 40.5756 368.778 197.211 410.748ZM546.83 200.197C587.213 49.4864 497.351 -106.018 346.508 -146.436C195.666 -186.854 40.0911 -97.1144 -0.291721 53.5964C-40.6746 204.307 49.1869 359.812 200.03 400.23C350.872 440.648 506.447 350.908 546.83 200.197ZM542.116 198.934C502.428 347.055 349.53 435.249 201.289 395.528C53.0492 355.807 -35.267 202.98 4.42177 54.8594C44.1105 -93.2609 197.008 -181.455 345.249 -141.735C493.489 -102.014 581.805 50.814 542.116 198.934ZM342.433 -131.228C484.881 -93.0596 569.746 53.7917 531.61 196.119C493.473 338.447 346.552 423.191 204.105 385.022C61.6573 346.853 -23.2085 200.002 14.928 57.6745C53.0646 -84.6528 199.986 -169.397 342.433 -131.228ZM205.364 380.32C345.221 417.795 489.454 334.593 526.897 194.856C564.339 55.1194 481.018 -89.0555 341.174 -126.527C201.329 -163.998 57.0839 -80.7992 19.6415 58.9375C-17.8008 198.674 65.5196 342.849 205.364 380.32ZM516.39 192.041C552.28 58.0971 472.41 -80.1013 338.359 -116.02C204.307 -151.94 66.038 -72.1912 30.1479 61.7527C-5.74233 195.697 74.1277 333.895 208.18 369.814C342.231 405.733 480.5 325.985 516.39 192.041ZM511.677 190.778C476.481 322.131 340.9 400.338 209.439 365.113C77.978 329.888 -0.334748 194.369 34.8613 63.0156C70.0573 -68.3376 205.637 -146.544 337.099 -111.319C468.56 -76.094 546.873 59.4247 511.677 190.778ZM334.284 -100.813C459.952 -67.1399 534.814 62.4024 501.17 187.963C467.527 313.523 337.923 388.279 212.254 354.606C86.586 320.934 11.7238 191.391 45.3677 65.8308C79.0115 -59.7296 208.615 -134.485 334.284 -100.813ZM213.514 349.905C336.58 382.88 463.507 309.67 496.457 186.7C529.407 63.73 456.09 -63.1357 333.024 -96.1111C209.958 -129.086 83.0308 -55.876 50.0812 67.0938C17.1315 190.064 90.4485 316.929 213.514 349.905ZM485.951 183.885C517.348 66.7078 447.482 -54.1816 330.209 -85.6048C212.936 -117.028 91.985 -47.268 60.5875 69.909C29.19 187.086 99.0565 307.975 216.329 339.398C333.602 370.822 454.553 301.062 485.951 183.885ZM481.237 182.622C450.534 297.208 332.271 365.426 217.589 334.697C102.907 303.968 34.5856 185.755 65.2889 71.1687C95.9923 -43.4176 214.279 -111.629 328.949 -80.9033C443.619 -50.1774 511.94 68.0354 481.237 182.622ZM326.134 -70.3969C435.011 -41.2233 499.879 71.0251 470.731 179.807C441.583 288.588 329.278 353.376 220.401 324.203C111.524 295.029 46.6562 182.781 75.8073 73.9871C104.958 -34.8063 217.256 -99.5706 326.134 -70.3969ZM221.661 319.501C327.948 347.981 437.56 284.746 466.014 178.556C494.468 72.3647 431.146 -37.2072 324.871 -65.6834C218.596 -94.1597 108.959 -30.932 80.5055 75.2589C52.0518 181.45 115.374 291.022 221.661 319.501ZM455.508 175.74C482.412 75.3305 422.553 -28.2618 322.059 -55.1891C221.577 -82.1131 117.929 -22.3327 91.0239 78.0773C64.1191 178.487 123.991 282.083 224.473 309.007C324.955 335.931 428.603 276.15 455.508 175.74ZM450.806 174.481C424.599 272.288 323.627 330.523 225.736 304.293C127.832 278.06 69.5179 177.144 95.7254 79.337C121.933 -18.4703 222.893 -76.7088 320.796 -50.4757C418.699 -24.2425 477.014 76.6733 450.806 174.481ZM317.984 -39.9813C410.082 -15.3036 464.946 79.6358 440.288 171.662C415.629 263.689 320.646 318.477 228.548 293.799C136.449 269.121 81.5852 174.182 106.244 82.1554C130.902 -9.87109 225.885 -64.659 317.984 -39.9813ZM229.811 289.086C319.307 313.066 411.625 259.826 435.586 170.403C459.547 80.9787 406.229 -11.2843 316.721 -35.2679C227.213 -59.2514 134.906 -6.00874 110.945 83.4152C86.9841 172.839 140.303 265.102 229.811 289.086ZM425.068 167.584C447.48 83.9411 397.612 -2.34543 313.909 -24.7736C230.206 -47.2017 143.876 2.59049 121.463 86.2335C99.0513 169.876 148.92 256.163 232.623 278.591C316.326 301.019 402.656 251.227 425.068 167.584ZM420.367 166.324C398.652 247.365 314.998 295.612 233.886 273.878C152.773 252.144 104.45 168.534 126.165 87.4932C147.88 6.45285 231.534 -41.7941 312.646 -20.0601C393.758 1.6739 442.081 85.284 420.367 166.324ZM309.834 -9.56572C385.154 10.6161 430.011 88.2585 409.848 163.506C389.686 238.754 312.005 283.562 236.698 263.383C161.39 243.205 116.521 165.559 136.683 90.3117C156.846 15.0641 234.527 -29.7443 309.834 -9.56572ZM237.961 258.67C310.677 278.154 385.678 234.903 405.147 162.246C424.615 89.5894 381.288 14.6321 308.571 -4.85229C235.854 -24.3367 160.853 18.9145 141.385 91.5714C121.916 164.228 165.244 239.185 237.961 258.67ZM394.628 159.428C412.545 92.5638 372.683 23.5743 305.759 5.64207C238.847 -12.2869 169.819 27.5257 151.903 94.3898C133.987 161.254 173.849 230.243 240.772 248.176C307.696 266.108 376.712 226.292 394.628 159.428ZM389.927 158.168C372.708 222.43 306.357 260.697 242.035 243.462C177.702 226.224 139.386 159.911 156.605 95.6496C173.823 31.3881 240.163 -6.88253 304.496 10.3556C368.83 27.5936 407.146 93.9067 389.927 158.168ZM301.684 20.8499C360.213 36.5326 395.079 96.8692 379.409 155.35C363.739 213.83 303.376 248.65 244.847 232.968C186.319 217.285 151.453 156.948 167.123 98.4679C182.793 39.9874 243.156 5.16726 301.684 20.8499ZM246.107 228.266C302.045 243.255 359.732 209.98 374.707 154.09C389.683 98.2001 356.362 40.54 300.424 25.5514C244.487 10.5629 186.8 43.8378 171.824 99.7277C156.849 155.618 190.169 213.278 246.107 228.266ZM364.189 151.272C377.612 101.175 347.742 49.4908 297.609 36.0577C247.476 22.6246 195.766 52.4491 182.343 102.546C168.919 152.643 198.789 204.327 248.922 217.76C299.055 231.193 350.765 201.369 364.189 151.272ZM359.487 150.012C346.758 197.518 297.725 225.797 250.182 213.058C202.64 200.32 174.315 151.312 187.044 103.806C199.774 56.2994 248.807 28.0203 296.35 40.7592C343.892 53.4982 372.217 102.505 359.487 150.012ZM293.538 51.2536C335.287 62.4403 360.149 105.468 348.972 147.181C337.795 188.895 294.738 213.724 253 202.54C211.263 191.357 186.389 148.326 197.566 106.612C208.743 64.8986 251.8 40.07 293.538 51.2536ZM254.26 197.839C293.407 208.328 333.788 185.045 344.271 145.922C354.754 106.799 331.425 66.4444 292.278 55.9551C253.131 45.4657 212.75 68.749 202.267 107.872C191.784 146.995 215.113 187.349 254.26 197.839ZM333.752 143.103C342.68 109.785 322.817 75.3986 289.463 66.4614C256.109 57.5242 221.713 77.3722 212.786 110.69C203.858 144.008 223.721 178.395 257.075 187.332C290.429 196.27 324.825 176.421 333.752 143.103ZM329.051 141.844C320.818 172.571 289.087 190.871 258.335 182.631C227.572 174.388 209.254 142.678 217.487 111.95C225.72 81.2226 257.44 62.9198 288.203 71.1628C318.966 79.4059 337.284 111.116 329.051 141.844Z" fill="url(#paint0_linear_2_11872)"/>
<defs>
<linearGradient id="paint0_linear_2_11872" x1="-84.5651" y1="385.04" x2="-34.565" y2="203.04" gradientUnits="userSpaceOnUse">
<stop stop-color="#EAC400" stop-opacity="0"/>
<stop offset="1" stop-color="#E1E1E1"/>
</linearGradient>
</defs>
</svg>
