<svg width="719" height="480" viewBox="0 0 719 480" fill="none" xmlns="http://www.w3.org/2000/svg">
<path fill-rule="evenodd" clip-rule="evenodd" d="M836.372 164.858C896.975 -61.316 762.11 -294.682 535.744 -355.337L535.74 -355.324C309.362 -415.982 75.8941 -281.311 15.2908 -55.137C-45.3124 171.037 89.5413 404.4 315.919 465.058C542.298 525.716 775.769 391.033 836.372 164.858ZM831.659 163.595C771.75 387.179 540.958 520.305 317.182 460.344L317.179 460.356C93.4036 400.396 -39.9016 169.698 20.0074 -53.8861C79.9165 -277.47 310.708 -410.596 534.484 -350.635C758.259 -290.675 891.568 -59.9883 831.659 163.595ZM821.152 160.78C879.509 -57.0107 749.651 -281.72 531.669 -340.129L531.665 -340.117C313.683 -398.525 88.8676 -268.85 30.5107 -51.0589C-27.8462 166.732 102.012 391.442 319.994 449.85C537.977 508.258 762.795 378.571 821.152 160.78ZM816.436 159.529C758.773 374.729 536.634 502.86 321.254 445.149C105.874 387.438 -22.4387 165.404 35.224 -49.796C92.8868 -264.996 315.026 -393.126 530.406 -335.415C745.786 -277.704 874.098 -55.671 816.436 159.529ZM527.594 -324.921C737.181 -268.762 862.043 -52.7052 805.929 156.714C749.816 366.133 533.656 490.801 324.069 434.642C114.482 378.483 -10.38 162.427 45.7337 -46.9927C101.847 -256.412 318.01 -381.092 527.597 -324.933L527.594 -324.921ZM325.329 429.941C532.314 485.402 745.799 362.268 801.216 155.451C856.632 -51.3656 733.315 -264.746 526.331 -320.207C319.346 -375.669 105.86 -252.534 50.4439 -45.7178C-4.97253 161.099 118.344 374.479 325.329 429.941ZM790.71 152.636C844.577 -48.3999 724.711 -255.804 523.519 -309.713L523.522 -309.725C322.33 -363.634 114.821 -243.95 60.9535 -42.9146C7.08612 158.121 126.941 365.522 328.144 419.434C529.348 473.347 736.842 353.672 790.71 152.636ZM785.996 151.373C732.826 349.806 528.005 467.948 329.404 414.733C130.815 361.521 12.4937 156.794 65.6637 -41.6396C118.834 -240.073 323.667 -358.211 522.256 -305C720.845 -251.788 839.166 -47.0603 785.996 151.373ZM519.444 -294.505C712.252 -242.843 827.108 -44.0826 775.49 148.558C723.872 341.198 525.027 455.889 332.219 404.227C139.411 352.564 24.5554 153.804 76.1733 -38.8365C127.791 -231.477 326.639 -346.18 519.447 -294.517L519.444 -294.505ZM333.479 399.525C523.685 450.491 719.856 337.332 770.776 147.295C821.697 -42.743 708.387 -238.826 518.181 -289.792C327.975 -340.757 131.804 -227.599 80.8835 -37.5615C29.963 152.476 143.273 348.56 333.479 399.525ZM760.27 144.48C809.641 -39.7771 699.782 -229.884 515.369 -279.297L515.372 -279.309C330.959 -328.723 140.765 -219.015 91.3931 -34.7583C42.0216 149.499 151.881 339.606 336.294 389.019C520.707 438.432 710.898 328.736 760.27 144.48ZM755.556 143.217C706.882 324.871 519.364 433.033 337.554 384.317C155.744 335.601 47.4292 148.171 96.1033 -33.4833C144.777 -215.138 332.296 -323.3 514.106 -274.584C695.916 -225.868 804.231 -38.4375 755.556 143.217ZM511.294 -264.09C687.311 -216.926 792.175 -35.4718 745.05 140.402C697.925 316.275 516.386 420.975 340.369 373.811C164.352 326.647 59.4878 145.193 106.613 -30.6802C153.738 -206.553 335.28 -311.265 511.297 -264.102L511.294 -264.09ZM341.629 369.11C515.055 415.579 693.909 312.409 740.34 139.126C786.771 -34.1562 683.449 -212.922 510.034 -259.388C336.62 -305.854 157.754 -202.688 111.326 -29.4172C64.8986 143.854 168.214 322.643 341.629 369.11ZM729.83 136.323C774.709 -31.1665 674.841 -203.968 507.219 -248.882C339.597 -293.796 166.708 -194.08 121.829 -26.5901C76.9507 140.9 176.819 313.701 344.441 358.615C512.062 403.529 684.951 303.813 729.83 136.323ZM725.117 135.06C680.932 299.96 510.732 398.134 345.7 353.914C180.669 309.694 82.3583 139.572 126.543 -25.3271C170.728 -190.226 340.928 -288.4 505.959 -244.18C670.991 -199.96 769.301 -29.8389 725.117 135.06ZM503.144 -233.674C662.382 -191.006 757.243 -26.8611 714.61 132.245C671.978 291.352 507.754 386.075 348.516 343.407C189.277 300.74 94.4169 136.595 137.049 -22.5119C179.682 -181.618 343.906 -276.342 503.144 -233.674ZM349.775 338.706C506.411 380.676 667.959 287.498 709.897 130.982C751.835 -25.5335 658.52 -187.002 501.884 -228.973C345.249 -270.943 183.701 -177.765 141.763 -21.2489C99.8245 135.267 193.14 296.735 349.775 338.706ZM699.394 128.155C739.777 -22.5558 649.915 -178.06 499.072 -218.478C348.23 -258.896 192.655 -169.157 152.272 -18.4458C111.889 132.265 201.751 287.769 352.594 328.188C503.437 368.606 659.011 278.866 699.394 128.155ZM694.68 126.892C654.992 275.012 502.094 363.207 353.854 323.486C205.613 283.765 117.297 130.937 156.986 -17.1828C196.675 -165.303 349.573 -253.498 497.813 -213.777C646.053 -174.056 734.369 -21.2281 694.68 126.892ZM494.998 -203.27C637.445 -165.102 722.311 -18.2505 684.174 124.077C646.038 266.404 499.116 351.148 356.669 312.98C214.221 274.811 129.356 127.96 167.492 -14.3676C205.629 -156.695 352.55 -241.439 494.998 -203.27ZM357.928 308.278C497.785 345.753 642.018 262.551 679.461 122.814C716.903 -16.9228 633.583 -161.098 493.738 -198.569C353.893 -236.04 209.648 -152.841 172.206 -13.1047C134.763 126.632 218.084 270.807 357.928 308.278ZM668.954 119.999C704.844 -13.9451 624.974 -152.143 490.923 -188.063C356.871 -223.982 218.602 -144.233 182.712 -10.2895C146.822 123.654 226.692 261.853 360.744 297.772C494.795 333.691 633.064 253.943 668.954 119.999ZM664.241 118.736C629.045 250.089 493.465 328.295 362.003 293.07C230.542 257.845 152.229 122.327 187.425 -9.02653C222.621 -140.38 358.202 -218.586 489.663 -183.361C621.124 -148.136 699.437 -12.6174 664.241 118.736ZM486.848 -172.855C612.516 -139.182 687.378 -9.6398 653.734 115.921C620.091 241.481 490.487 316.237 364.819 282.564C239.15 248.891 164.288 119.349 197.932 -6.21135C231.576 -131.772 361.179 -206.528 486.848 -172.855ZM366.078 277.863C489.144 310.838 616.071 237.628 649.021 114.658C681.971 -8.31215 608.654 -135.178 485.588 -168.153C362.522 -201.129 235.595 -127.918 202.645 -4.94839C169.696 118.021 243.013 244.887 366.078 277.863ZM638.515 111.843C669.912 -5.33442 600.046 -126.224 482.773 -157.647C365.5 -189.07 244.549 -119.31 213.152 -2.13323C181.754 115.044 251.621 235.933 368.893 267.356C486.166 298.779 607.117 229.019 638.515 111.843ZM633.801 110.58C603.098 225.166 484.835 293.384 370.153 262.655C255.471 231.926 187.15 113.713 217.853 -0.873473C248.556 -115.46 366.843 -183.671 481.513 -152.945C596.183 -122.22 664.505 -4.00677 633.801 110.58ZM478.698 -142.439C587.575 -113.265 652.443 -1.01707 623.295 107.764C594.147 216.546 481.843 281.334 372.965 252.16C264.088 222.987 199.22 110.738 228.371 1.94491C257.523 -106.848 369.82 -171.613 478.698 -142.439ZM374.225 247.459C480.512 275.938 590.124 212.704 618.578 106.513C647.032 0.322608 583.71 -109.249 477.435 -137.726C371.16 -166.202 261.523 -102.974 233.07 3.21666C204.616 109.408 267.938 218.98 374.225 247.459ZM608.072 103.698C634.977 3.28831 575.117 -100.304 474.623 -127.231C374.141 -154.155 270.493 -94.3749 243.588 6.03508C216.683 106.445 276.555 210.041 377.037 236.965C477.519 263.889 581.167 204.108 608.072 103.698ZM603.37 102.439C577.163 200.246 476.191 258.481 378.3 232.251C280.396 206.018 222.082 105.102 248.289 7.29483C274.497 -90.5125 375.457 -148.751 473.36 -122.518C571.263 -96.2847 629.578 4.63115 603.37 102.439ZM470.548 -112.023C562.646 -87.3458 617.51 7.59363 592.852 99.6201C568.194 191.647 473.21 246.435 381.112 221.757C289.013 197.079 234.149 102.14 258.808 10.1132C283.466 -81.9133 378.45 -136.701 470.548 -112.023ZM382.375 217.043C471.871 241.024 564.189 187.784 588.151 98.3603C612.112 8.93653 558.793 -83.3265 469.285 -107.31C379.777 -131.294 287.47 -78.0509 263.509 11.373C239.548 100.797 292.867 193.06 382.375 217.043ZM577.632 95.5419C600.044 11.899 550.176 -74.3876 466.473 -96.8157C382.77 -119.244 296.44 -69.4516 274.028 14.1913C251.615 97.8343 301.484 184.121 385.187 206.549C468.89 228.977 555.22 179.185 577.632 95.5419ZM572.931 94.2822C551.216 175.323 467.562 223.57 386.45 201.836C305.337 180.102 257.014 96.4915 278.729 15.4511C300.444 -65.5893 384.098 -113.836 465.21 -92.1023C546.322 -70.3683 594.645 13.2418 572.931 94.2822ZM462.398 -81.6079C537.718 -61.4261 582.575 16.2163 562.412 91.4638C542.25 166.711 464.569 211.52 389.262 191.341C313.954 171.163 269.085 93.517 289.247 18.2695C309.41 -56.9781 387.091 -101.786 462.398 -81.6079ZM390.525 186.628C463.242 206.112 538.243 162.861 557.711 90.2041C577.179 17.5472 533.852 -57.41 461.135 -76.8944C388.418 -96.3788 313.417 -53.1277 293.949 19.5292C274.481 92.1862 317.808 167.143 390.525 186.628ZM547.193 87.3857C565.109 20.5217 525.247 -48.4679 458.323 -66.4001C391.411 -84.3291 322.383 -44.5164 304.467 22.3476C286.551 89.2116 326.413 158.201 393.337 176.133C460.261 194.066 529.276 154.25 547.193 87.3857ZM542.491 86.126C525.272 150.387 458.921 188.655 394.6 171.42C330.266 154.182 291.95 87.8688 309.169 23.6074C326.388 -40.654 392.727 -78.9247 457.06 -61.6866C521.394 -44.4485 559.71 21.8645 542.491 86.126ZM454.248 -51.1923C512.777 -35.5096 547.643 24.827 531.973 83.3076C516.303 141.788 455.94 176.608 397.412 160.926C338.883 145.243 304.017 84.9062 319.687 26.4257C335.357 -32.0548 395.72 -66.8749 454.248 -51.1923ZM398.671 156.224C454.609 171.213 512.296 137.938 527.271 82.0478C542.247 26.1579 508.926 -31.5022 452.989 -46.4907C397.051 -61.4793 339.364 -28.2044 324.389 27.6855C309.413 83.5754 342.733 141.236 398.671 156.224ZM516.753 79.2294C530.176 29.1324 500.306 -22.5514 450.173 -35.9845C400.04 -49.4176 348.33 -19.5931 334.907 30.5039C321.483 80.6009 351.353 132.285 401.486 145.718C451.619 159.151 503.33 129.326 516.753 79.2294ZM512.052 77.9697C499.322 125.476 450.289 153.755 402.746 141.016C355.204 128.277 326.879 79.2701 339.608 31.7637C352.338 -15.7428 401.371 -44.0219 448.914 -31.283C496.456 -18.544 524.781 30.4632 512.052 77.9697ZM446.102 -20.7886C487.851 -9.60186 512.713 33.4257 501.536 75.1393C490.359 116.853 447.302 141.681 405.565 130.498C363.827 119.314 338.953 76.2836 350.13 34.57C361.307 -7.14356 404.364 -31.9722 446.102 -20.7886ZM406.824 125.796C445.971 136.286 486.352 113.002 496.835 73.8795C507.318 34.7566 483.989 -5.59774 444.842 -16.0871C405.695 -26.5765 365.314 -3.29317 354.831 35.8298C344.348 74.9527 367.677 115.307 406.824 125.796ZM486.317 71.0611C495.244 37.7431 475.381 3.35639 442.027 -5.58081C408.673 -14.518 374.277 5.33007 365.35 38.6481C356.422 71.9662 376.285 106.353 409.639 115.29C442.994 124.227 477.389 104.379 486.317 71.0611ZM481.615 69.8014C473.382 100.529 441.651 118.829 410.899 110.589C380.136 102.346 361.818 70.6353 370.051 39.9079C378.285 9.18044 410.004 -9.12238 440.767 -0.879347C471.53 7.3637 489.848 39.0739 481.615 69.8014Z" fill="url(#paint0_linear_2_11954)"/>
<defs>
<linearGradient id="paint0_linear_2_11954" x1="89.8206" y1="326.102" x2="211.654" y2="785.372" gradientUnits="userSpaceOnUse">
<stop stop-color="#EAC400" stop-opacity="0"/>
<stop offset="1" stop-color="#FFEFB8"/>
</linearGradient>
</defs>
</svg>
