<svg width="271" height="48" viewBox="0 0 271 48" fill="none" xmlns="http://www.w3.org/2000/svg">
<path fill-rule="evenodd" clip-rule="evenodd" d="M0.0465281 0.029207C-0.0289862 0.105215 -0.00645375 19.1271 0.0701431 20.0036C0.28525 22.4633 0.786649 25.1138 1.36579 26.8525L1.45653 27.1249L1.96382 27.1759C2.2428 27.2039 2.80605 27.2575 3.21542 27.2951C4.3729 27.4012 5.73946 27.6491 6.76784 27.9395C7.12139 28.0393 7.502 28.1463 7.61365 28.1773C8.01849 28.2895 9.43249 28.7938 9.70382 28.9228C12.003 30.0151 12.6586 30.399 14.3463 31.641C14.6254 31.8464 14.9031 32.0636 14.9634 32.1237C15.0238 32.1838 15.3131 32.4222 15.6062 32.6532C16.2043 33.1246 17.5528 34.4939 18.1694 35.2559C18.3927 35.5319 18.6241 35.8075 18.6836 35.8683C18.7431 35.9292 18.9122 36.1628 19.0594 36.3876C19.2066 36.6124 19.4654 36.9955 19.6344 37.2389C19.8035 37.4824 20.0418 37.8655 20.1641 38.0903C20.2864 38.3151 20.4099 38.5296 20.4384 38.5671C20.5329 38.6908 20.9132 39.3796 21.0401 39.6568C21.1086 39.8066 21.2943 40.205 21.4526 40.5422C21.7517 41.1795 22.2257 42.4631 22.5087 43.4027C22.6829 43.9811 23.0385 45.5805 23.1068 46.093C23.1971 46.7696 23.3096 47.2668 23.3766 47.2838C24.6405 47.6061 25.4927 47.7374 27.5749 47.9311C27.9858 47.9694 75.9022 47.9952 149.626 47.997L271 48V36.6849C271 29.8262 270.975 25.2058 270.935 24.9533C270.9 24.7243 270.822 24.1844 270.763 23.7536C270.556 22.2384 270.221 20.6624 269.829 19.3606C269.692 18.9046 269.213 17.5628 269.085 17.2753C269.029 17.1486 268.808 16.6465 268.595 16.1595C268.198 15.2526 268.094 15.0479 267.402 13.8098C266.853 12.8273 266.397 12.117 265.863 11.4121C265.73 11.2358 265.544 10.9811 265.451 10.8461C265.358 10.711 265.251 10.5641 265.214 10.5195C265.176 10.475 264.913 10.1473 264.628 9.79145C264.089 9.11596 262.27 7.28249 261.385 6.52159C260.593 5.84038 260.568 5.82028 260.207 5.56815C260.021 5.43799 259.778 5.2618 259.666 5.17667C259.103 4.74738 258.499 4.34282 258.42 4.34282C258.38 4.34282 258.347 4.31571 258.347 4.28268C258.347 4.24958 258.293 4.20313 258.228 4.17943C258.163 4.15572 258.049 4.09852 257.974 4.05227C257.056 3.4835 256.662 3.2659 255.705 2.79731C255.089 2.496 254.51 2.22623 254.419 2.19769C254.328 2.16923 254.009 2.0456 253.712 1.92301C251.535 1.02678 248.578 0.326834 246.032 0.104939C245.34 0.0446633 215.347 0.0202807 122.605 0.00454779C55.2227 -0.00696245 0.0714288 0.00414326 0.0465281 0.029207ZM244.814 1.34457C245.651 1.37774 246.58 1.44027 246.877 1.48358C247.584 1.58649 248.835 1.80607 249.178 1.88753C249.327 1.92294 249.647 1.9965 249.888 2.05099C250.564 2.20321 252.225 2.68726 252.629 2.84928C253.953 3.38093 254.819 3.76138 255.539 4.12706C256.368 4.54864 257.904 5.48234 258.649 6.01841C259.628 6.72204 260.037 7.04228 260.819 7.71416C261.281 8.11103 263.023 9.85193 263.32 10.2126C264.05 11.1001 264.584 11.7814 264.796 12.0946C264.931 12.2937 265.128 12.5695 265.234 12.7076C265.341 12.8456 265.565 13.1883 265.732 13.4693C265.9 13.7502 266.156 14.1793 266.301 14.4228C267.095 15.7531 268.062 18.0061 268.596 19.7693C268.698 20.1064 268.807 20.4589 268.839 20.5525C268.894 20.7186 269.121 21.6721 269.334 22.6298C269.452 23.1604 269.535 23.8575 269.679 25.5244C269.757 26.4336 269.776 28.569 269.779 36.7111L269.782 46.7741L149.558 46.7719C76.5852 46.7707 28.9134 46.745 28.2637 46.7067C27.6749 46.672 26.8944 46.606 26.5292 46.5601L25.8652 46.4767L25.785 45.7601C25.741 45.366 25.6911 45.0209 25.6741 44.9932C25.6572 44.9657 25.611 44.765 25.5716 44.5475C25.4979 44.1408 24.9951 42.2902 24.7965 41.6942C24.5997 41.1038 23.8247 39.1763 23.6549 38.8549L23.4907 38.544L23.7397 38.6484C23.8765 38.7059 24.1256 38.8218 24.2931 38.906C24.7643 39.143 26.5622 39.8251 27.2027 40.0099C28.8394 40.4821 28.9221 40.5015 30.5859 40.8031C31.8639 41.0347 32.6576 41.0859 34.9842 41.0864C37.6008 41.0871 38.2576 41.0334 40.0591 40.6719C41.0389 40.4752 41.874 40.2485 43.3408 39.7812C43.9869 39.5754 43.9941 39.562 44.2781 38.0222C44.552 36.5382 44.5727 36.3535 44.4653 36.3535C44.3922 36.3535 43.5818 36.6586 43.2084 36.8267C42.6976 37.0566 42.0295 37.2661 40.7019 37.6125C39.8932 37.8235 38.3165 38.1167 37.5555 38.1975C36.4286 38.3172 33.8701 38.3532 32.9542 38.2622C31.718 38.1395 30.3416 37.8973 29.0973 37.5838C28.342 37.3936 26.9998 36.9826 26.6275 36.8277C26.5531 36.7967 26.1877 36.6448 25.8156 36.4901C24.0316 35.7485 21.7971 34.4279 20.4278 33.3058C18.7657 31.944 17.6702 30.814 16.1522 28.8957C15.8949 28.5705 15.1078 27.3997 14.6922 26.7237C14.3471 26.1626 13.399 24.3127 13.399 24.2006C13.399 24.1754 13.3412 24.0261 13.2704 23.869C12.6898 22.5793 11.9749 20.1657 11.7736 18.8158C11.7345 18.5535 11.6719 18.1551 11.6344 17.9304C11.4396 16.7635 11.3651 13.4576 11.5092 12.3796C11.5468 12.0986 11.6061 11.6542 11.6411 11.392C11.6983 10.962 11.8272 10.2272 11.9753 9.48497C12.0052 9.33513 12.1109 8.92138 12.2101 8.56551C12.3093 8.20965 12.4205 7.79589 12.4573 7.64605C12.5424 7.29843 13.1957 5.55569 13.273 5.47001C13.3051 5.43439 13.3313 5.33482 13.3313 5.24866C13.3313 5.06879 13.1841 5.04773 12.7064 5.1595C12.5477 5.19669 11.9916 5.30682 11.4706 5.40442C10.0809 5.66452 10.1543 5.61398 9.88835 6.49578C9.76533 6.90368 9.64022 7.31403 9.61038 7.40768C8.487 10.9265 8.31513 16.2534 9.1962 20.246C9.22922 20.3959 9.29208 20.687 9.33586 20.893C9.37957 21.0991 9.44081 21.3443 9.4718 21.4379C9.50286 21.5316 9.57979 21.7921 9.64286 22.0168C9.8332 22.6953 10.434 24.4642 10.4976 24.5334C10.5304 24.569 10.558 24.6457 10.5592 24.7037C10.5603 24.7618 10.7692 25.2383 11.0234 25.7628C11.2774 26.2872 11.4774 26.7261 11.4677 26.738C11.4579 26.75 11.3936 26.7296 11.3249 26.6926C11.1533 26.6006 10.7916 26.4507 10.3879 26.3046C10.2018 26.2371 10.019 26.1592 9.98172 26.1312C9.86243 26.042 7.90326 25.4069 7.37682 25.2868C7.0977 25.2231 6.79321 25.1449 6.70017 25.1129C6.60713 25.081 6.30264 25.0189 6.02352 24.9748C5.7444 24.9308 5.37901 24.8688 5.21154 24.837C5.04407 24.8053 4.66345 24.747 4.36573 24.7076C4.068 24.6681 3.65511 24.6059 3.44819 24.5693C3.24127 24.5327 2.84177 24.5028 2.56042 24.5028H2.04887L1.97492 24.2133C1.93425 24.0541 1.88208 23.7859 1.85901 23.6174C1.83586 23.4488 1.79168 23.2036 1.76082 23.0725C1.55167 22.1842 1.50586 21.8152 1.32086 19.5309C1.24434 18.5855 1.22383 16.5747 1.2218 9.80848L1.2193 1.27796L122.255 1.2811C191.23 1.28294 243.946 1.31018 244.814 1.34457ZM16.0024 4.86289C15.7881 4.89545 15.6983 5.02696 15.3569 5.80714C15.275 5.99444 15.1358 6.30665 15.0478 6.50089C14.9597 6.69513 14.8876 6.89591 14.8876 6.94699C14.8876 6.99807 14.8625 7.06898 14.8318 7.1046C14.801 7.14015 14.7348 7.30722 14.6846 7.47578C14.6344 7.64435 14.5258 7.96616 14.4434 8.19092C14.3005 8.58029 14.0264 9.66716 13.8679 10.4725C13.3621 13.0429 13.3522 15.9996 13.8402 18.7136C13.9451 19.2971 13.9763 19.4334 14.1757 20.1779C14.4941 21.367 14.6154 21.7412 15.004 22.732C15.339 23.5862 16.2213 25.361 16.483 25.7071C16.5732 25.8264 16.6469 25.9454 16.6469 25.9717C16.6469 26.0351 17.5223 27.3665 17.6575 27.5087C17.7158 27.57 17.87 27.7633 18.0002 27.9383C18.9137 29.1658 20.6884 30.9385 21.9607 31.8943C22.1085 32.0053 22.2445 32.1117 22.2631 32.1309C22.7017 32.5824 25.2851 34.0327 26.7513 34.6506C27.8262 35.1035 29.3894 35.5906 30.3491 35.7716C30.6841 35.8348 31.0951 35.915 31.2626 35.9499C32.2446 36.1545 33.1288 36.2173 35.0286 36.2173C36.1193 36.2173 37.233 36.1844 37.5034 36.1441C38.8606 35.9422 39.2137 35.8664 40.9725 35.4C41.8574 35.1654 43.0277 34.7133 44.1751 34.1629L44.7386 33.8926L44.7164 32.2658C44.7019 31.2074 44.6683 30.6131 44.6201 30.5646C44.5665 30.5108 44.3887 30.5817 43.9773 30.8209C42.6368 31.6 41.2563 32.1547 39.6192 32.5718C38.5876 32.8346 38.0587 32.9345 36.5274 33.1553C35.9243 33.2422 34.0781 33.2386 33.3602 33.1489C31.4157 32.9062 31.0127 32.826 29.4356 32.3681C28.7495 32.1689 27.2555 31.5502 26.526 31.1631C25.6092 30.6767 24.2985 29.8232 23.4538 29.1626C22.7235 28.5915 21.3906 27.2884 20.9168 26.6822C20.7265 26.4387 20.4382 26.071 20.2762 25.8649C19.4983 24.8759 18.3731 22.9547 18.0024 21.9828C17.9524 21.8517 17.836 21.5758 17.7439 21.3698C17.6516 21.1638 17.5523 20.9033 17.5231 20.7909C17.494 20.6785 17.3893 20.3107 17.2906 19.9736C17.1918 19.6365 17.0648 19.1461 17.0083 18.8839C16.9518 18.6216 16.8775 18.2845 16.8433 18.1347C16.4986 16.6254 16.423 13.9769 16.6734 12.1752C16.7949 11.3007 17.0462 10.1569 17.2867 9.38281C17.3857 9.0644 17.5074 8.66597 17.5572 8.4974C17.7398 7.87871 18.273 6.64712 18.6481 5.97741C19.1021 5.16686 19.17 5.0162 19.1089 4.95545C19.0447 4.8915 16.3432 4.81099 16.0024 4.86289ZM20.9335 5.61984C20.4787 6.32912 19.635 8.06846 19.3158 8.95468C18.8857 10.1488 18.831 10.3247 18.7797 10.6769C18.7552 10.8454 18.7074 11.0753 18.6735 11.1877C18.5822 11.4904 18.4196 12.7323 18.338 13.7492C18.1912 15.5786 18.6555 18.8794 19.2519 20.246C19.301 20.3584 19.4465 20.7262 19.5754 21.0633C19.7871 21.617 19.9729 21.9987 20.4869 22.9363C21.6506 25.0589 23.6841 27.2446 25.775 28.62C26.4542 29.0668 28.2089 30.0141 28.556 30.1213C28.649 30.15 28.847 30.2282 28.9958 30.295C29.6581 30.5924 31.4106 31.0634 32.2776 31.1771C34.9813 31.5318 36.9159 31.431 39.2471 30.814C40.1237 30.5819 40.9566 30.2793 41.7507 29.9043C41.9554 29.8077 42.2903 29.6533 42.495 29.5612C42.6997 29.4692 43.2127 29.1782 43.6351 28.9147L44.403 28.4354L44.3587 28.0526C44.3343 27.842 44.2889 27.5778 44.2579 27.4655C44.2268 27.3531 44.1505 27.0159 44.0882 26.7163C43.9076 25.8463 43.6272 24.8433 43.5647 24.8433C43.5331 24.8433 43.2489 25.044 42.9331 25.2893C41.5239 26.3842 39.4111 27.3574 37.6752 27.7115C36.5258 27.9458 36.2356 27.9737 34.925 27.9749C33.4518 27.9763 32.6773 27.8683 31.2626 27.4636C29.1077 26.8474 27.1215 25.6708 25.5787 24.0968C24.7079 23.2083 24.0667 22.3685 23.4967 21.3698C23.1285 20.7248 22.7368 19.9381 22.7368 19.8438C22.7368 19.8238 22.6623 19.6435 22.5713 19.4432C22.4258 19.123 22.271 18.6413 22.0522 17.8282C21.848 17.0692 21.764 16.273 21.7399 14.8712C21.7178 13.5822 21.7335 13.271 21.8551 12.5896C21.9945 11.8076 22.017 11.7066 22.228 10.9152C22.2878 10.6905 22.3663 10.3906 22.4023 10.2489C22.4384 10.1071 22.4968 9.93856 22.5321 9.87427C22.5674 9.80998 22.7511 9.42687 22.9401 9.02285C23.3638 8.11756 23.7866 7.40257 24.314 6.69922C24.5359 6.40322 24.721 6.11499 24.7252 6.05873C24.7296 6.00091 24.6447 5.92898 24.5299 5.89336C24.144 5.77356 23.3073 5.57414 22.6015 5.4337C22.3968 5.39297 22.0823 5.33011 21.9028 5.29394C21.2713 5.16686 21.211 5.18715 20.9335 5.61984ZM26.1113 7.07947C24.9617 8.38278 23.9358 10.4356 23.6156 12.0731C23.5717 12.2978 23.5081 12.6043 23.4743 12.7541C23.2831 13.6022 23.2822 15.6524 23.4725 16.6022C23.5063 16.7708 23.568 17.0773 23.6096 17.2833C23.7093 17.7771 23.9278 18.457 24.13 18.9029C24.2197 19.1007 24.2933 19.2845 24.2935 19.3116C24.2942 19.3857 24.8786 20.5308 25.0893 20.8708C25.527 21.5771 25.9911 22.1401 26.8231 22.9741C27.6392 23.792 28.2828 24.2935 29.0973 24.7458C29.2276 24.8182 29.3494 24.8949 29.368 24.9164C29.4316 24.9897 30.2808 25.3713 30.9243 25.6156C32.5112 26.2181 34.1978 26.4426 35.9833 26.2889C36.4944 26.2449 37.0192 26.1782 37.1495 26.1407C37.2797 26.1032 37.659 26.0084 37.9922 25.93C38.3255 25.8516 38.7273 25.7283 38.8851 25.656C39.0429 25.5836 39.2003 25.5244 39.2349 25.5244C39.388 25.5244 40.8242 24.7554 41.3675 24.3826C42.3074 23.7375 42.9687 23.1735 42.9687 23.0168C42.9687 22.7749 41.7717 20.0708 41.6239 19.9789C41.5949 19.9609 41.3755 20.1467 41.1365 20.3917C40.6143 20.9271 39.7873 21.5896 39.1613 21.9741C38.9094 22.1287 38.6896 22.2552 38.6727 22.2552C38.6559 22.2552 38.4757 22.3318 38.2723 22.4255C38.0689 22.5191 37.8566 22.5957 37.8006 22.5957C37.7446 22.5957 37.6822 22.6227 37.662 22.6557C37.6417 22.6887 37.5561 22.7309 37.4719 22.7495C37.3876 22.7681 37.0141 22.8544 36.642 22.9411C35.7278 23.1543 34.2449 23.1585 33.2925 22.9505C32.4586 22.7685 31.6153 22.4639 30.9953 22.1208C30.7226 21.97 30.4853 21.8466 30.4679 21.8466C30.4506 21.8466 30.352 21.7776 30.249 21.6933C30.1459 21.6091 29.9741 21.48 29.8671 21.4066C29.6619 21.2659 28.5262 20.1389 28.353 19.9041C28.2972 19.8284 28.1602 19.6448 28.0485 19.4961C27.5113 18.7803 26.9257 17.4326 26.7317 16.466C26.5231 15.4266 26.4914 13.8762 26.6648 13.1968C26.6982 13.0657 26.7893 12.6987 26.8671 12.3811C26.9449 12.0636 27.033 11.7724 27.0628 11.7341C27.0926 11.6958 27.1812 11.489 27.2597 11.2748C27.5788 10.4029 28.0633 9.69004 29.0145 8.69253C29.6412 8.03536 29.6629 8.00253 29.5352 7.90547C29.4101 7.81046 28.3191 7.27146 28.2519 7.27146C28.2349 7.27146 28.018 7.17781 27.7698 7.06339C27.3641 6.87643 26.9529 6.7108 26.6569 6.61524C26.587 6.5927 26.4013 6.75071 26.1113 7.07947ZM31.019 9.27492C30.2542 9.79336 29.4383 10.7946 28.9645 11.7963C28.4969 12.7848 28.3332 13.5456 28.3337 14.7293C28.334 15.4764 28.3625 15.7206 28.5161 16.293C28.6163 16.6661 28.7219 17.0032 28.7508 17.0422C28.7797 17.0812 28.8592 17.2663 28.9275 17.4536C29.1088 17.951 29.7628 18.8905 30.2572 19.3638C30.746 19.8317 31.286 20.2801 31.3606 20.2801C31.3883 20.2801 31.4981 20.3426 31.6048 20.4191C31.8733 20.6116 32.6187 20.9131 33.348 21.1243C34.5419 21.4699 36.41 21.3204 37.5404 20.7886C37.7368 20.6962 37.9148 20.6206 37.9359 20.6206C38.0589 20.6206 39.1674 19.8003 39.5359 19.4367C40.0477 18.9316 40.5327 18.3045 40.5327 18.148C40.5327 17.7798 38.7246 15.2401 38.4624 15.2401C38.4176 15.2401 38.3435 15.401 38.2978 15.5977C38.0426 16.695 36.9657 17.7667 35.8098 18.0735C35.3486 18.196 34.5508 18.1953 34.0811 18.0722C32.8449 17.7481 31.8133 16.7019 31.5393 15.4945C31.4987 15.316 31.4656 14.9209 31.4656 14.6164C31.4656 13.0456 32.4389 11.7509 33.9861 11.2635C34.2001 11.1961 34.3752 11.1046 34.3752 11.0601C34.3752 11.0156 34.2045 10.8575 33.9959 10.7089C33.7872 10.5601 33.4599 10.3143 33.2685 10.1624C33.077 10.0106 32.7986 9.81298 32.6497 9.72328C32.5009 9.63365 32.3638 9.54177 32.3452 9.51923C32.2579 9.41312 31.5855 9.04227 31.4806 9.04227C31.4155 9.04227 31.2078 9.14695 31.019 9.27492ZM109.991 13.3357C109.619 13.3634 109.177 13.4175 109.01 13.4559C108.842 13.4942 108.492 13.5702 108.232 13.6248C106.909 13.9017 104.819 14.9655 103.811 15.8743C103.31 16.3261 102.495 17.1599 102.311 17.4092C102.218 17.5346 102.079 17.7185 102.002 17.8178C101.578 18.3684 100.933 19.557 100.649 20.3141C100.058 21.8889 99.9158 22.6491 99.9119 24.2644C99.9082 25.813 99.974 26.2633 100.424 27.7719C101.126 30.1206 102.827 32.333 104.974 33.6877C106.257 34.4974 107.244 34.8888 108.976 35.2754C109.535 35.4001 112.051 35.3979 112.731 35.2721C114.611 34.9245 116.537 34.0313 117.874 32.8872C118.494 32.3565 119.363 31.4389 119.362 31.3153C119.362 31.2582 119.217 31.0394 119.041 30.8292C118.864 30.619 118.598 30.2994 118.449 30.1189C118.3 29.9385 118.072 29.6631 117.942 29.507C117.811 29.3508 117.537 29.0161 117.333 28.7631C117.128 28.5101 116.9 28.234 116.825 28.1495C116.751 28.0649 116.51 27.7759 116.29 27.5071C116.07 27.2384 115.857 27.029 115.816 27.0418C115.776 27.0547 115.642 27.2165 115.52 27.4015C114.787 28.51 113.72 29.32 112.461 29.7239C111.948 29.8885 111.78 29.9087 110.904 29.9112C110.336 29.9129 109.838 29.8819 109.72 29.8376C109.609 29.7955 109.34 29.7083 109.123 29.6439C108.034 29.3203 106.887 28.4403 106.204 27.4047C105.76 26.7321 105.418 25.6922 105.323 24.7269C105.221 23.6852 105.656 22.0922 106.287 21.1995C106.583 20.7808 107.438 19.8825 107.623 19.7968C107.697 19.7621 107.88 19.6568 108.029 19.5628C108.177 19.4687 108.345 19.3725 108.401 19.349C109.118 19.047 109.38 18.962 109.848 18.8791C111.703 18.5505 113.495 19.1207 114.815 20.4599C115.124 20.773 115.413 21.0293 115.458 21.0293C115.557 21.0293 119.227 17.3465 119.227 17.2478C119.227 17.21 118.869 16.8242 118.432 16.3906C117.217 15.1859 116.103 14.5015 114.355 13.8874C112.945 13.3918 111.571 13.218 109.991 13.3357ZM62.2168 14.0993C62.1991 14.1461 62.1924 18.6898 62.202 24.1963L62.2194 34.2081L64.8414 34.226L67.4634 34.2438V24.129V14.0141H64.8562C62.8327 14.0141 62.2418 14.0332 62.2168 14.0993ZM75.6145 14.0993C75.5968 14.1461 75.5901 18.6898 75.5997 24.1963L75.6171 34.2081L78.2053 34.226L80.7934 34.2438V29.5095C80.7934 26.9056 80.8163 24.7755 80.8442 24.7759C80.8721 24.7764 81.0365 24.9066 81.2095 25.0654C81.3825 25.2242 81.8676 25.6606 82.2874 26.0352C82.7072 26.4098 83.266 26.9126 83.5291 27.1526C84.5093 28.0468 84.7129 28.2302 85.4623 28.8957C85.8842 29.2703 86.6001 29.9139 87.0531 30.326C87.5062 30.738 88.2377 31.397 88.6787 31.7903C89.1198 32.1836 89.6346 32.6466 89.8229 32.819C90.011 32.9915 90.4391 33.3821 90.774 33.6869L91.383 34.2412L92.2458 34.2417L93.1085 34.2422V24.1274V14.0126L90.4865 14.0304L87.8644 14.0482L87.8471 18.5997L87.8297 23.1512L87.5764 22.9179C86.8651 22.2626 86.2982 21.7512 85.6337 21.1655C85.23 20.8096 84.8023 20.4265 84.6832 20.3141C84.5641 20.2017 84.1217 19.8033 83.7001 19.4287C83.2784 19.0541 82.7324 18.5638 82.4866 18.339C81.646 17.5705 81.2898 17.2488 80.4883 16.5341C80.0472 16.1408 79.2426 15.4129 78.7004 14.9166L77.7147 14.0144L76.6807 14.0142C75.9157 14.0141 75.6383 14.0363 75.6145 14.0993ZM125.452 24.1282V34.2422H128.058H130.663V26.4779V18.7136H131.944C133.754 18.7136 134.312 18.8562 135.053 19.5091C135.807 20.1734 136.108 20.9052 136.064 21.9713C136.042 22.4941 136.003 22.6999 135.871 22.9703C135.285 24.176 134.306 24.8433 133.124 24.8433C132.689 24.8433 132.625 24.8589 132.625 24.9659C132.625 25.0333 132.652 25.1176 132.684 25.1532C132.717 25.1888 132.843 25.4018 132.964 25.6265C133.086 25.8513 133.253 26.1578 133.337 26.3076C133.532 26.6587 134.321 28.0654 134.52 28.419C134.604 28.5688 134.757 28.8446 134.859 29.0319C134.961 29.2192 135.166 29.587 135.313 29.8492C135.461 30.1115 135.658 30.4639 135.752 30.6325C135.845 30.801 135.991 31.0616 136.076 31.2114C136.161 31.3612 136.45 31.8823 136.719 32.3692C136.988 32.8562 137.278 33.3772 137.362 33.5271C137.447 33.6769 137.568 33.8914 137.631 34.0038L137.745 34.2081L140.801 34.2259C142.763 34.2372 143.857 34.2197 143.857 34.1769C143.857 34.1148 143.786 33.9768 143.46 33.4079C143.312 33.1495 142.87 32.3667 142.623 31.9265C142.529 31.758 142.079 30.9611 141.624 30.1557C141.168 29.3503 140.719 28.5535 140.625 28.3849C140.531 28.2164 140.314 27.8336 140.143 27.5343C139.971 27.2351 139.798 26.9286 139.757 26.8532C139.692 26.7327 139.761 26.6339 140.332 26.0282C141.066 25.25 141.024 25.3025 141.392 24.7071C141.703 24.2027 142.112 23.1807 142.264 22.5276C142.408 21.905 142.409 19.8614 142.264 19.3734C142.013 18.526 141.931 18.3045 141.652 17.7155C141.303 16.9773 140.663 16.1675 139.875 15.4654C139.257 14.9138 138.706 14.5815 137.854 14.2445L137.271 14.0141H131.361H125.452V24.1282ZM149.437 14.0993C149.419 14.1461 149.413 18.6898 149.422 24.1963L149.44 34.2081L156.292 34.2255L163.144 34.2429L163.126 31.8417L163.108 29.4406L158.896 29.423L154.684 29.4055V27.9417V26.4779H158.406H162.128L162.111 23.9068L162.093 21.3357L158.388 21.3181L154.684 21.3005V19.973V18.6455H158.913H163.142V16.3298V14.0141H156.306C150.899 14.0141 149.463 14.0319 149.437 14.0993ZM177.921 14.6765C177.731 15.0426 177.369 15.7407 177.116 16.2277C176.863 16.7146 176.474 17.4655 176.252 17.8963C175.88 18.6161 175.588 19.1802 174.611 21.0633C174.417 21.4379 174.006 22.2348 173.698 22.8341C173.39 23.4335 173.085 24.0158 173.02 24.1282C172.955 24.2406 172.635 24.8535 172.309 25.4903C171.672 26.7347 171.233 27.5822 170.722 28.5552C170.545 28.8923 170.148 29.6585 169.84 30.2579C169.532 30.8572 169.167 31.5622 169.028 31.8244C168.551 32.7226 167.811 34.1729 167.811 34.2075C167.811 34.2266 169.1 34.2422 170.676 34.2422H173.541L173.713 33.9187C173.95 33.4756 174.464 32.4871 175.05 31.3476C175.32 30.8232 175.686 30.1183 175.862 29.7811C176.312 28.9213 176.921 27.7491 177.436 26.7503C177.677 26.2821 178.058 25.5465 178.283 25.1157C178.508 24.685 178.767 24.1835 178.859 24.0014C178.951 23.8192 179.042 23.6966 179.061 23.7289C179.144 23.8681 179.417 24.3655 179.636 24.7752C179.766 25.0187 179.894 25.2485 179.921 25.286C179.948 25.3235 180.093 25.584 180.242 25.8649C180.595 26.5267 180.857 27.0061 181.006 27.2611C181.071 27.3735 181.231 27.6647 181.36 27.9082C181.49 28.1516 181.661 28.4658 181.741 28.6063C182.028 29.1135 182.138 29.3133 182.424 29.8492C182.585 30.1489 182.738 30.4247 182.765 30.4622C182.792 30.4997 182.945 30.7755 183.105 31.0752C183.265 31.3749 183.452 31.7197 183.521 31.8414C183.589 31.9631 183.7 32.1624 183.768 32.2841C183.836 32.4058 184.024 32.7506 184.186 33.0503C184.348 33.35 184.561 33.7331 184.659 33.9017L184.838 34.2081L187.827 34.2259C189.472 34.2357 190.817 34.2203 190.816 34.1918C190.816 34.1633 190.572 33.6985 190.275 33.1588C189.978 32.6191 189.734 32.1517 189.734 32.1202C189.734 32.0886 189.71 32.0627 189.681 32.0627C189.652 32.0627 189.593 31.9785 189.55 31.8754C189.479 31.7056 189.38 31.5236 188.891 30.6665C188.806 30.5167 188.605 30.1489 188.446 29.8492C188.287 29.5496 188.044 29.1052 187.905 28.8617C187.766 28.6182 187.561 28.2504 187.45 28.0444C187.135 27.4593 186.894 27.0227 186.646 26.5934C186.521 26.376 186.419 26.1861 186.419 26.1714C186.419 26.1567 186.316 25.9668 186.191 25.7494C185.978 25.38 185.884 25.2103 185.401 24.3325C185.299 24.1452 184.861 23.3508 184.429 22.5671C183.998 21.7834 183.644 21.1168 183.644 21.0857C183.644 21.0547 183.621 21.0293 183.592 21.0293C183.562 21.0293 183.503 20.945 183.46 20.842C183.417 20.7389 183.286 20.4861 183.169 20.2801C182.716 19.4814 182.642 19.3488 182.445 18.986C182.333 18.78 182.126 18.3969 181.986 18.1347C181.845 17.8725 181.708 17.6273 181.681 17.5898C181.654 17.5524 181.525 17.3225 181.395 17.079C180.94 16.23 180.715 15.8185 180.667 15.7509C180.64 15.7134 180.487 15.4376 180.327 15.1379C180.166 14.8383 179.967 14.4705 179.884 14.3206L179.733 14.0482L178.999 14.0295L178.265 14.0108L177.921 14.6765ZM195.869 14.0596C195.844 14.0845 195.824 18.6358 195.824 24.1736V34.2422H198.429H201.034V29.5381V24.834L201.457 25.1954C201.69 25.3942 202.004 25.6645 202.154 25.7961C202.305 25.9276 202.519 26.1118 202.629 26.2055C203.257 26.7403 204.167 27.5231 204.614 27.9136C204.897 28.16 205.218 28.4359 205.328 28.5266C205.437 28.6172 205.666 28.8148 205.835 28.9657C206.004 29.1165 206.432 29.4843 206.785 29.783C207.137 30.0816 207.474 30.372 207.534 30.4282C207.593 30.4843 207.896 30.7449 208.207 31.0071C208.518 31.2693 209.052 31.729 209.394 32.0287C209.736 32.3284 210.253 32.7728 210.543 33.0163C210.833 33.2597 211.134 33.5203 211.213 33.5952C211.291 33.6701 211.497 33.8464 211.67 33.9868L211.985 34.2422H212.769H213.553L213.536 24.1452L213.518 14.0482H210.913H208.308L208.291 18.7013L208.274 23.3544L207.783 22.9253C207.514 22.6892 207.125 22.3423 206.918 22.1543C206.267 21.5606 205.882 21.217 205.161 20.5866C204.776 20.2494 204.106 19.6518 203.673 19.2585C203.24 18.8651 202.572 18.2675 202.187 17.9304C201.419 17.2567 201.014 16.896 200.387 16.3298C200.159 16.1238 199.661 15.6794 199.28 15.3422C198.898 15.0051 198.414 14.5688 198.203 14.3727L197.82 14.0162L196.867 14.0152C196.343 14.0146 195.894 14.0346 195.869 14.0596ZM221.636 14.0993C221.618 14.1461 221.611 18.6898 221.621 24.1963L221.638 34.2081H226.95H232.262L232.803 34.0174C233.702 33.7006 234.985 33.0414 235.673 32.5432C236.29 32.0962 237.44 30.9744 237.878 30.3934C238.697 29.3055 239.483 27.5447 239.746 26.2055C239.91 25.3731 239.925 23.257 239.773 22.3493C239.668 21.719 239.402 20.7822 239.197 20.3141C238.789 19.3868 238.467 18.7692 238.368 18.725C238.341 18.7124 238.318 18.6686 238.318 18.6275C238.318 18.4758 237.525 17.5012 236.849 16.8203C236.254 16.2221 235.375 15.5125 235.228 15.5125C235.204 15.5125 235.09 15.4413 234.975 15.3542C234.479 14.9796 233.041 14.3751 232.025 14.1145C231.506 13.9813 221.686 13.9669 221.636 14.0993ZM247.822 14.0985C247.805 14.1457 247.798 18.6898 247.807 24.1963L247.825 34.2081L250.447 34.226L253.069 34.2438L253.052 24.146L253.035 14.0482L250.445 14.0304C248.409 14.0163 247.848 14.0309 247.822 14.0985ZM232.103 19.9395C232.284 20.0519 232.451 20.1439 232.473 20.1439C232.551 20.1439 233.555 21.2017 233.734 21.472C234.013 21.8948 234.292 22.5776 234.426 23.1655C234.633 24.0758 234.487 25.3656 234.076 26.2395C233.594 27.2685 232.538 28.2917 231.596 28.6454C231.221 28.786 231.092 28.7936 229.075 28.7936H226.95V24.2644V19.7352H229.362H231.773L232.103 19.9395ZM2.09895 28.8825C2.09895 28.9328 2.20288 29.1915 2.41284 29.6638C2.50067 29.8615 2.5726 30.0429 2.5726 30.067C2.5726 30.0912 2.79969 30.5758 3.07725 31.144L3.58189 32.1772L4.07531 32.2906C4.34671 32.3529 4.83201 32.464 5.15382 32.5375C5.47564 32.6111 5.85625 32.7167 5.99963 32.7722C6.14302 32.8277 6.39737 32.9085 6.56484 32.9518C7.20083 33.116 8.81809 33.8556 9.97678 34.512C10.1884 34.6318 11.0367 35.2009 11.0984 35.2644C11.117 35.2835 11.2543 35.3787 11.4035 35.4759C12.4897 36.1838 14.5883 38.346 15.4357 39.6306C15.5251 39.7661 15.7174 40.0573 15.8631 40.2776C16.1248 40.6734 16.9851 42.3295 17.2035 42.8579C17.4912 43.5538 17.7206 44.2095 17.9031 44.8574L18.1017 45.5629L18.4739 45.7296C18.6786 45.8214 19.0196 45.9538 19.2317 46.0239C19.4439 46.0941 19.7179 46.1955 19.8407 46.2495C19.9635 46.3034 20.2467 46.4039 20.47 46.4729C20.6933 46.5419 20.9065 46.6198 20.9437 46.646C20.9809 46.6723 21.1256 46.7152 21.2651 46.7415C21.513 46.7881 21.5188 46.7845 21.5188 46.5825C21.5188 46.4688 21.4878 46.2279 21.4499 46.0471C21.4119 45.8663 21.3229 45.4272 21.2521 45.0714C21.0941 44.278 21.0133 44.0012 20.5857 42.7897C20.1127 41.4494 20.0336 41.2624 19.5205 40.268C19.2696 39.782 19.0305 39.3156 18.9891 39.2317C18.9476 39.1477 18.8909 39.0787 18.863 39.0784C18.835 39.0781 18.8122 39.046 18.8122 39.007C18.8122 38.968 18.7547 38.8531 18.6845 38.7516C18.6142 38.6501 18.4039 38.3333 18.2172 38.0476C18.0306 37.762 17.8303 37.4708 17.7723 37.4006C17.7142 37.3304 17.4803 37.0195 17.2526 36.7097C16.8288 36.1331 14.7269 33.9488 14.2509 33.5902C14.1053 33.4805 13.8008 33.2447 13.5742 33.066C12.3185 32.0759 9.65876 30.6136 8.15497 30.0865C6.84809 29.6284 6.43743 29.5137 4.90705 29.1793C3.93098 28.9659 2.09895 28.7723 2.09895 28.8825ZM5.41453 35.0749C5.41453 35.1268 5.49052 35.2748 5.58343 35.4039C5.67633 35.5328 5.80571 35.7122 5.871 35.8023C6.08638 36.0997 6.97076 37.1971 7.35815 37.6476C7.84513 38.214 9.93456 40.3137 10.4218 40.7263C10.6264 40.8997 10.9005 41.1324 11.0307 41.2434C11.4381 41.5908 12.0608 42.0667 12.5532 42.4071C13.4082 42.9981 14.2406 43.5479 14.4817 43.6808C14.6119 43.7526 14.734 43.8319 14.753 43.8571C14.772 43.8822 14.8709 43.9238 14.9729 43.9496C15.2469 44.0188 15.2176 43.8827 14.7615 42.9705C13.9942 41.436 13.4569 40.6437 12.3101 39.3561C11.0348 37.924 9.61762 36.8524 7.65317 35.835C7.2802 35.6419 6.57594 35.3319 6.51003 35.3319C6.47194 35.3319 6.30758 35.2745 6.14484 35.2043C5.69636 35.0108 5.41453 34.9609 5.41453 35.0749Z" fill="#4B4B4B"/>
</svg>
